<?xml version="1.0" standalone="no"?>
<!DOCTYPE svg PUBLIC "-//W3C//DTD SVG 20010904//EN"
 "http://www.w3.org/TR/2001/REC-SVG-20010904/DTD/svg10.dtd">
<svg version="1.0" xmlns="http://www.w3.org/2000/svg"
 width="800.000000pt" height="800.000000pt" viewBox="0 0 800.000000 800.000000"
 preserveAspectRatio="xMidYMid meet">
<metadata>
Created by potrace 1.16, written by Peter Selinger 2001-2019
</metadata>
<g transform="translate(0.000000,800.000000) scale(0.100000,-0.100000)"
fill="#000000" stroke="none">
<path d="M0 6837 l0 -1163 67 -55 c86 -70 307 -263 466 -406 26 -24 50 -43 53
-43 3 0 15 -9 27 -21 12 -11 55 -49 96 -82 131 -110 231 -199 231 -206 0 -4
-12 -13 -27 -20 -25 -10 -26 -10 -9 3 17 14 17 16 -16 50 -19 20 -40 36 -47
36 -6 0 -27 18 -47 40 -20 22 -41 40 -47 40 -5 0 -26 18 -45 41 -20 23 -40 38
-48 35 -8 -3 -14 -2 -14 2 0 17 -72 81 -86 75 -8 -3 -14 1 -14 8 0 20 -61 78
-76 72 -8 -3 -14 1 -14 8 0 16 -50 69 -65 69 -6 0 -29 18 -50 40 -21 22 -43
40 -47 40 -4 0 -24 18 -44 40 -20 22 -45 40 -55 40 -11 0 -19 4 -19 9 0 19
-52 71 -71 71 -10 0 -19 4 -19 10 0 10 -64 80 -74 80 -3 0 -6 -26 -6 -59 l0
-58 172 -150 c297 -258 400 -347 503 -433 55 -46 102 -87 103 -92 2 -4 9 -8
15 -8 7 0 25 -12 41 -27 18 -16 31 -23 33 -16 3 7 11 9 19 6 12 -4 12 -8 2
-22 -8 -10 -3 -8 11 4 22 19 24 19 36 2 11 -15 14 -15 24 -3 9 11 10 20 1 35
-14 28 3 28 37 1 31 -24 43 -25 43 -5 0 8 3 15 8 15 4 0 13 4 21 9 11 7 8 16
-14 45 -33 43 -22 46 23 6 37 -34 38 -38 16 -55 -13 -9 -15 -20 -9 -56 6 -35
9 -40 15 -24 4 12 15 27 24 34 12 10 13 18 5 32 -11 21 1 25 19 7 10 -10 14
-8 18 10 4 12 10 22 15 22 5 0 6 -6 3 -14 -4 -10 0 -13 13 -11 10 2 19 4 21 5
1 2 6 3 11 4 22 3 19 14 -14 46 -29 28 -37 31 -50 20 -13 -11 -15 -9 -15 13 0
13 -7 30 -16 37 -8 8 -20 22 -25 33 -10 17 -7 16 20 -4 17 -12 31 -26 31 -31
0 -17 21 -7 50 24 l31 32 -37 37 c-20 21 -42 36 -48 34 -6 -3 -26 16 -44 41
-25 34 -39 44 -53 41 -11 -3 -19 0 -19 6 -1 24 -61 79 -81 74 -11 -3 -16 -1
-13 5 7 10 -54 78 -70 78 -5 0 -18 -8 -29 -17 -19 -18 -19 -17 -6 4 13 21 11
26 -24 60 l-38 38 -30 -35 c-16 -19 -29 -31 -29 -26 0 12 22 50 34 58 7 5 -2
20 -25 44 -31 31 -39 34 -55 24 -11 -7 -25 -23 -31 -36 -10 -21 -7 -27 20 -50
18 -14 55 -47 82 -73 28 -26 60 -54 72 -62 13 -9 58 -47 100 -86 43 -39 99
-88 125 -109 26 -21 46 -43 44 -48 -4 -16 -26 -19 -26 -4 0 8 -15 28 -33 46
-32 31 -34 31 -57 15 -14 -9 -19 -10 -12 -3 6 8 12 17 12 20 0 11 -70 80 -81
80 -5 0 -25 18 -45 39 -21 24 -41 38 -50 34 -8 -3 -14 1 -14 9 0 22 -62 70
-82 64 -12 -3 -18 2 -18 12 0 19 -48 72 -66 72 -6 0 -17 -7 -24 -15 -18 -22
-24 -11 -8 14 11 18 9 24 -17 51 -21 22 -37 30 -53 27 -18 -3 -22 -1 -17 11 7
18 -41 72 -65 72 -9 0 -22 -6 -29 -12 -11 -11 -12 -9 -3 8 9 18 6 26 -21 52
-18 18 -41 32 -50 32 -9 0 -17 6 -17 13 0 15 -61 77 -75 77 -6 0 -18 14 -27
30 -16 28 -22 30 -75 31 -51 1 -55 2 -28 10 17 5 38 7 47 5 9 -2 19 1 22 8 3
7 9 5 18 -6 13 -15 15 -15 24 0 8 12 29 16 85 18 41 2 121 7 179 13 58 5 170
10 250 11 80 1 255 7 389 13 134 7 291 12 348 12 101 0 103 0 103 23 0 20 -4
23 -27 18 -37 -8 -329 -27 -368 -25 -30 2 -467 -12 -515 -16 -14 -1 -28 3 -33
9 -5 8 -10 7 -16 -3 -6 -10 -13 -11 -29 -2 -26 14 -89 14 -97 1 -3 -5 -12 -10
-18 -10 -7 0 -6 4 3 10 11 7 2 10 -32 10 -28 0 -48 -5 -51 -12 -3 -8 -6 -8 -6
-2 -1 7 -40 10 -121 8 -68 -2 -122 1 -125 7 -4 5 0 9 7 10 7 0 65 2 128 5 63
2 154 6 202 8 49 2 85 0 82 -5 -7 -12 10 -11 22 1 6 6 37 12 70 15 32 2 61 5
64 6 3 1 8 1 13 0 4 0 7 2 7 6 0 5 28 9 63 10 88 3 147 9 154 16 3 4 14 2 24
-3 12 -7 20 -7 24 0 3 5 48 10 98 10 51 0 157 4 237 10 80 5 228 12 330 15
102 3 250 10 330 15 80 5 268 13 418 16 l272 7 0 36 c0 20 -4 97 -10 171 -5
74 -12 200 -15 280 -4 80 -8 188 -10 240 -11 259 -32 444 -59 533 -8 26 -11
47 -7 47 5 0 11 -10 14 -22 3 -13 18 -63 32 -113 26 -91 35 -193 50 -525 3
-74 10 -187 15 -250 5 -63 12 -160 16 -215 4 -55 8 -107 10 -115 1 -8 3 -26 3
-39 l1 -24 223 7 c438 13 524 16 640 22 129 6 125 8 105 -57 -8 -27 -17 -39
-30 -39 -10 0 -18 -7 -18 -16 0 -11 6 -13 20 -9 16 5 19 2 17 -24 -1 -17 -4
-31 -7 -32 -3 0 -18 -2 -35 -5 -62 -10 -101 -14 -137 -13 -28 0 -38 -5 -43
-21 -3 -11 -11 -20 -16 -20 -5 0 -9 -8 -9 -18 0 -17 51 -72 67 -72 4 0 21 19
37 41 21 30 25 44 17 52 -20 20 -12 31 10 11 17 -15 23 -16 40 -5 19 11 20 10
14 -9 -4 -12 -1 -27 5 -35 16 -19 -4 -20 -22 -1 -12 11 -17 11 -34 -3 -10 -9
-24 -28 -31 -43 -10 -22 -9 -29 7 -43 10 -9 16 -23 13 -31 -4 -11 -7 -11 -20
1 -8 9 -19 12 -25 9 -7 -4 -8 -2 -4 4 12 20 -17 13 -41 -10 -18 -17 -23 -18
-23 -6 0 9 7 21 15 28 8 7 15 15 15 19 0 9 -71 81 -80 81 -4 0 -19 -18 -34
-40 l-26 -39 39 -41 c26 -28 41 -37 46 -29 5 7 12 0 21 -20 7 -17 18 -31 23
-31 6 0 17 -12 25 -27 13 -25 12 -30 -13 -63 -14 -19 -30 -39 -36 -43 -6 -6
-6 -10 3 -14 6 -2 12 -11 12 -18 0 -7 7 -16 16 -19 9 -4 14 -9 10 -13 -8 -8
-56 37 -56 53 0 7 14 29 31 49 34 38 33 42 -20 92 -31 30 -36 29 -60 -11 -27
-43 -27 -45 9 -85 l30 -33 -20 -28 c-11 -15 -20 -31 -20 -35 0 -3 -7 -13 -15
-22 -14 -14 -13 -18 15 -44 16 -16 30 -35 30 -41 0 -7 -16 5 -35 25 -40 43
-41 43 -69 20 -16 -14 -18 -14 -8 -2 12 16 -1 41 -45 87 -14 14 -37 7 -27 -9
3 -5 1 -8 -4 -7 -9 3 -71 -52 -125 -111 -16 -17 -32 -31 -36 -31 -8 0 -71 66
-71 74 0 15 38 -10 53 -35 l17 -31 33 44 c28 36 31 45 20 56 -17 18 -36 53
-31 58 3 2 19 -11 37 -28 27 -26 34 -29 41 -18 5 8 18 26 29 39 12 13 21 25
21 27 0 2 -16 20 -35 41 l-36 38 -29 -35 c-16 -19 -30 -38 -30 -42 0 -5 -5 -8
-10 -8 -12 0 -170 -160 -170 -172 0 -4 -8 -8 -17 -8 -13 0 -14 3 -5 8 15 10
62 73 62 83 0 4 -12 21 -26 38 -33 40 -13 40 25 0 l29 -30 25 33 c38 52 38 54
11 83 -36 39 -20 45 19 7 l32 -31 34 40 33 41 -33 36 c-19 20 -35 39 -36 41
-4 6 -60 -54 -72 -78 -7 -12 -18 -21 -26 -21 -8 0 -21 -10 -29 -22 -9 -12 -16
-17 -16 -10 0 19 30 62 44 62 17 1 68 78 60 92 -17 27 -48 58 -59 58 -11 0
-75 -66 -75 -78 0 -3 15 -18 33 -33 17 -15 29 -30 25 -34 -4 -4 -20 7 -37 24
-37 38 -44 38 -69 4 -11 -16 -23 -25 -27 -21 -4 4 2 19 14 34 15 20 18 31 11
44 -16 30 -12 35 11 14 21 -19 21 -19 54 21 l33 39 -19 27 c-29 41 -23 45 11
8 16 -18 31 -31 33 -28 31 35 65 94 60 103 -4 7 -1 6 8 -1 13 -11 20 -8 40 13
l24 26 -86 -3 c-78 -4 -89 -7 -107 -29 -11 -13 -18 -30 -15 -36 3 -8 -2 -11
-15 -7 -27 7 -90 -77 -67 -90 8 -4 15 -13 15 -19 0 -6 -8 -4 -18 5 -27 25 -34
22 -65 -28 -16 -25 -35 -45 -43 -45 -8 0 -26 -12 -40 -27 l-26 -28 22 33 c12
17 26 32 31 32 5 0 25 23 45 50 20 28 41 50 47 50 7 0 26 20 42 45 17 24 35
45 42 45 14 0 43 28 43 41 0 16 -150 4 -161 -12 -28 -42 -31 -51 -16 -67 29
-34 28 -46 -2 -15 -28 30 -61 36 -61 11 0 -13 -121 -130 -128 -124 -3 3 12 23
34 43 69 66 95 104 88 127 -6 20 -6 20 13 4 18 -17 20 -16 36 2 9 11 17 22 17
25 0 3 -32 5 -71 5 l-71 0 -71 -62 c-39 -35 -65 -54 -59 -43 19 33 39 55 49
55 11 0 43 32 43 43 0 4 -33 7 -74 7 -70 0 -74 -1 -100 -32 -17 -21 -26 -26
-26 -16 0 9 7 19 16 22 8 3 12 11 9 16 -7 12 -138 7 -169 -5 -15 -6 -17 -5
-11 5 5 8 4 11 -3 6 -6 -3 -76 -7 -155 -7 -80 0 -159 -4 -176 -9 -19 -5 -31
-5 -31 1 0 5 -11 8 -25 7 -28 -3 -35 -35 -10 -44 14 -6 14 -8 0 -18 -13 -9
-13 -21 -4 -75 12 -75 16 -84 35 -77 8 3 14 -1 14 -8 0 -7 21 -32 47 -56 31
-30 41 -45 32 -48 -8 -3 -22 -11 -31 -20 -21 -17 -23 -10 -7 16 9 15 8 23 -7
41 -50 60 -63 65 -65 24 -3 -75 9 -131 29 -136 15 -4 14 -5 -2 -6 -17 -1 -18
-7 -12 -58 4 -32 11 -94 16 -138 5 -44 14 -118 19 -165 6 -47 13 -112 16 -145
3 -33 8 -80 11 -105 3 -25 7 -67 9 -95 2 -27 6 -63 10 -78 7 -26 8 -27 26 -11
25 22 49 11 49 -23 0 -37 17 -18 25 30 6 30 4 37 -9 37 -22 0 -20 5 9 35 31
30 39 32 25 4 -7 -11 -10 -21 -8 -22 2 -1 13 -8 25 -14 12 -7 29 -10 38 -7 12
5 15 -2 15 -35 0 -34 -3 -41 -19 -41 -11 0 -21 5 -23 12 -6 16 -28 1 -28 -19
0 -10 6 -13 16 -9 14 5 15 4 4 -9 -11 -13 -6 -15 39 -15 39 0 50 3 45 13 -6
10 -4 10 7 0 18 -17 159 -18 159 -1 0 9 3 9 12 0 7 -7 43 -12 91 -12 74 0 79
1 66 18 -13 16 -13 16 7 0 15 -13 38 -18 87 -18 37 0 67 4 67 8 0 14 -23 32
-41 32 -9 0 -19 10 -22 21 -4 17 -3 19 6 10 6 -6 19 -11 30 -11 10 0 15 -4 12
-10 -3 -5 2 -10 12 -10 11 0 23 -4 29 -10 5 -5 22 -6 39 -1 31 8 36 26 20 63
-6 16 -5 17 20 4 30 -16 55 -11 55 9 0 7 5 15 11 17 17 6 -25 73 -45 72 -9 -1
-16 4 -16 11 0 6 -9 22 -20 35 -32 37 -23 37 15 0 19 -19 35 -31 35 -27 0 4 9
-2 20 -13 23 -23 43 -25 89 -9 35 12 38 24 14 51 -9 10 -12 18 -6 18 5 0 18
-9 28 -20 10 -11 21 -18 24 -16 4 3 24 -13 46 -35 40 -41 58 -49 53 -25 -2 8
8 24 21 35 l25 21 -34 35 c-33 34 -34 34 -54 17 -19 -15 -19 -15 -7 0 11 15 8
23 -20 58 -34 42 -47 48 -66 29 -9 -9 -11 -7 -7 7 3 11 -4 30 -15 43 -12 13
-21 26 -21 28 0 6 120 -96 142 -121 18 -19 18 -19 40 0 20 16 21 17 9 1 -13
-16 -10 -22 19 -52 19 -19 38 -35 42 -35 5 0 22 13 39 30 l31 29 -23 29 c-35
43 -58 56 -74 42 -11 -9 -12 -7 -9 7 3 11 -5 28 -20 42 -14 14 -26 29 -26 35
0 5 15 -4 33 -22 18 -18 36 -32 40 -32 4 0 28 -20 54 -45 25 -25 48 -44 49
-42 6 6 124 -112 124 -124 0 -8 -6 -6 -18 4 -10 10 -22 17 -25 17 -4 0 -26 21
-49 46 l-43 46 -27 -33 c-15 -18 -24 -35 -20 -38 4 -4 19 -22 32 -41 13 -19
25 -37 27 -39 1 -2 11 2 20 10 15 11 16 11 6 -1 -10 -11 -5 -21 24 -54 20 -23
42 -43 47 -45 30 -11 66 -44 59 -54 -10 -17 -4 -49 13 -68 8 -9 19 -30 23 -47
8 -27 7 -32 -12 -38 -22 -7 -21 -8 3 -14 16 -4 25 -13 25 -25 0 -11 3 -25 8
-32 5 -7 -3 -14 -22 -18 -20 -4 -28 -11 -24 -21 3 -8 1 -14 -4 -14 -5 0 -9 -8
-10 -17 -1 -10 -6 -43 -11 -73 -8 -41 -7 -64 3 -90 54 -144 64 -158 66 -97 1
17 3 52 3 76 1 25 8 47 14 49 7 2 12 10 12 18 0 8 5 14 10 14 15 0 12 -69 -5
-126 -8 -27 -13 -65 -11 -84 4 -45 31 -106 51 -113 8 -4 15 -14 15 -23 0 -15
-2 -15 -25 0 l-25 16 0 -37 c0 -46 8 -59 43 -72 27 -10 27 -10 27 29 0 22 4
40 9 40 13 0 19 -68 7 -80 -6 -6 -4 -15 4 -26 12 -14 12 -17 -4 -26 -14 -8
-15 -12 -4 -25 10 -13 8 -19 -12 -35 l-24 -20 24 -19 c14 -10 21 -19 16 -19
-5 0 -3 -7 5 -16 11 -13 9 -23 -11 -62 -12 -26 -26 -54 -30 -62 -9 -20 -42
-20 -57 0 -16 21 -24 9 -27 -39 -1 -22 -4 -43 -7 -45 -6 -6 -44 -14 -71 -15
-29 -1 -21 -16 16 -29 37 -14 66 -7 66 14 0 8 5 14 11 14 6 0 8 -7 5 -16 -5
-12 1 -15 27 -12 31 3 32 4 29 44 -2 29 2 46 13 58 28 28 40 13 43 -52 2 -46
7 -62 17 -62 8 0 15 -4 15 -10 0 -5 -5 -10 -10 -10 -7 0 -6 -8 2 -22 7 -13 13
-25 13 -28 1 -3 6 -21 12 -40 6 -19 14 -52 18 -72 3 -21 10 -38 15 -38 6 0 10
-10 10 -22 1 -13 7 -34 15 -48 22 -38 19 -80 -5 -80 -17 0 -20 -7 -20 -39 0
-60 54 -256 98 -356 22 -50 43 -101 47 -115 7 -22 6 -23 -8 -12 -19 16 -65
112 -84 177 -8 28 -18 55 -23 60 -11 15 -37 101 -50 167 -9 44 -16 59 -33 65
-12 4 -25 6 -29 5 -15 -4 -30 40 -19 51 6 6 11 8 11 3 0 -12 28 20 30 35 7 46
0 59 -30 59 -25 0 -29 -3 -27 -22 2 -12 9 -24 15 -26 22 -7 12 -20 -18 -24
-29 -4 -46 11 -41 38 1 6 -12 17 -28 24 -28 11 -32 10 -60 -19 -17 -18 -31
-36 -31 -40 0 -5 -16 -9 -36 -9 -28 0 -37 5 -45 25 -13 34 -13 33 25 33 69 0
45 18 -29 22 -68 3 -75 1 -78 -17 -4 -18 -4 -17 -6 3 0 12 -5 22 -10 22 -5 0
-16 3 -25 6 -13 5 -16 -2 -16 -38 0 -24 -6 -52 -14 -63 -7 -11 -16 -42 -20
-69 -4 -27 -14 -63 -21 -80 -7 -17 -28 -67 -46 -111 -18 -44 -36 -82 -39 -85
-3 -3 -11 -17 -18 -31 -20 -38 -104 -141 -110 -134 -3 3 4 15 16 28 12 13 22
28 22 35 0 6 6 15 13 19 39 25 144 282 144 354 0 25 4 56 8 69 6 19 4 22 -9
17 -9 -4 -16 -2 -16 2 0 5 7 12 16 15 12 5 14 13 9 34 -4 15 -9 35 -10 46 -3
33 -55 57 -55 25 0 -5 12 -9 28 -9 20 0 23 -3 12 -10 -10 -6 -14 -25 -12 -72
1 -35 -2 -81 -7 -103 -6 -22 -18 -71 -27 -110 -16 -68 -41 -129 -30 -75 2 14
7 36 10 50 4 14 9 68 11 121 4 78 2 98 -9 102 -15 6 -15 18 -2 48 4 9 6 34 4
55 -3 34 -6 39 -30 42 -16 2 -28 9 -28 18 0 8 -5 14 -11 14 -5 0 -7 -4 -4 -10
3 -5 -1 -10 -9 -10 -9 0 -16 -4 -16 -10 0 -5 5 -10 10 -10 6 0 10 -7 10 -16 0
-8 5 -12 11 -8 8 4 8 0 0 -15 -7 -11 -16 -21 -22 -21 -6 0 -8 4 -5 9 4 5 -3 7
-14 4 -11 -3 -24 -20 -31 -42 -6 -20 -17 -47 -24 -61 -49 -98 -55 -137 -31
-194 17 -40 67 -78 93 -70 16 5 17 5 1 -6 -10 -6 -29 -8 -43 -4 -28 7 -85 73
-85 98 0 18 -4 19 -85 17 -89 -3 -91 -5 -104 -68 -15 -77 -14 -156 4 -250 8
-43 15 -78 15 -78 0 -1 -12 0 -27 1 -35 1 -48 26 -65 123 -12 66 -16 75 -37
78 -39 6 -111 41 -112 55 -1 7 -1 18 0 24 1 6 -29 0 -71 -14 -78 -26 -278 -44
-248 -23 8 6 32 11 52 11 52 0 173 27 222 49 41 19 86 55 86 70 0 10 -36 26
-87 40 l-38 10 -4 123 c-6 162 -6 172 4 247 8 61 7 63 -12 57 -22 -7 -40 18
-22 30 6 3 8 17 5 29 -3 13 -3 25 2 27 4 2 -3 13 -15 25 -13 12 -23 18 -23 12
0 -6 -4 -7 -10 -4 -5 3 -10 2 -10 -4 0 -5 -8 -11 -17 -13 -14 -3 -17 -12 -15
-48 2 -25 10 -50 18 -56 10 -8 13 -21 9 -36 -3 -13 -2 -35 3 -48 l9 -25 8 25
c7 24 22 40 37 40 10 0 -11 -50 -30 -72 -9 -11 -11 -25 -6 -40 4 -13 8 -32 9
-43 1 -11 9 -47 18 -80 21 -81 28 -137 17 -130 -5 3 -14 25 -20 48 -6 23 -15
51 -20 62 -20 46 -70 268 -70 314 0 27 -5 53 -11 57 -8 4 -7 9 2 16 11 8 11
11 1 15 -7 2 -19 12 -27 20 -9 9 -23 12 -33 8 -14 -5 -15 -4 -4 6 14 15 16 55
2 64 -18 11 -51 -15 -45 -36 3 -10 8 -28 11 -39 7 -27 -22 -27 -31 1 -4 11
-10 18 -13 16 -4 -2 -22 -10 -39 -17 -18 -8 -33 -18 -33 -22 0 -4 -4 -8 -10
-8 -5 0 -7 6 -4 13 8 22 -18 38 -34 21 -7 -8 -10 -14 -6 -14 3 0 1 -7 -6 -15
-10 -12 -9 -15 6 -16 14 0 15 -2 4 -6 -20 -7 -50 -39 -50 -53 0 -5 -5 -10 -11
-10 -6 0 -7 -5 -2 -13 8 -13 5 -146 -5 -162 -8 -14 -22 45 -16 70 3 11 0 33
-5 49 -8 21 -7 39 5 77 16 49 14 79 -6 79 -18 0 -33 -53 -21 -72 8 -13 7 -19
-5 -26 -9 -5 -15 -12 -15 -15 1 -4 -2 -7 -6 -7 -5 0 -6 20 -5 43 4 42 47 140
83 185 10 14 19 29 19 35 0 6 7 19 17 29 15 17 15 21 -3 56 -10 20 -22 39 -26
42 -8 7 -38 122 -38 149 0 12 -6 24 -14 27 -8 3 -17 12 -20 19 -3 9 0 12 10 8
15 -6 17 14 5 57 -8 30 -56 38 -83 13 -12 -11 -18 -12 -18 -4 0 7 -5 9 -10 6
-6 -3 -10 1 -10 9 0 9 -7 16 -15 16 -22 0 -18 18 5 25 16 5 19 12 14 28 -4 12
-7 35 -5 51 1 21 -7 36 -29 56 -43 38 -100 153 -100 201 0 45 24 41 -216 39
-137 -1 -141 0 -140 20 1 19 -5 22 -74 26 -41 2 -96 5 -122 7 -26 2 -49 1 -51
-2 -2 -3 -2 0 0 8 2 10 -4 12 -24 7 -54 -14 -143 -12 -143 2 0 7 -4 11 -10 7
-5 -3 -7 -13 -4 -23 5 -16 5 -16 -8 0 -10 11 -19 14 -29 7 -19 -12 -42 -11
-34 1 3 6 1 10 -4 10 -6 0 -11 -4 -11 -9 0 -5 -11 -11 -25 -13 -16 -4 -25 0
-28 11 -4 13 -5 13 -6 -1 -1 -19 -21 -26 -21 -8 0 6 -9 10 -20 10 -33 0 -23
16 12 18 17 2 47 4 65 7 20 2 38 -2 47 -10 11 -11 15 -12 19 -2 3 9 98 12 415
14 226 0 416 4 421 8 33 20 -9 27 -144 24 -89 -2 -98 -2 -250 5 -121 6 -491 9
-550 5 -11 -1 -74 2 -140 5 -66 4 -182 9 -257 10 l-138 4 0 -2229 0 -2229
4000 0 4000 0 0 1223 c0 938 -3 1226 -12 1235 -9 9 -9 12 0 12 9 0 12 30 11
108 0 84 -3 101 -11 80 -10 -28 -28 -38 -28 -15 0 6 9 32 20 56 25 54 30 251
6 251 -9 0 -16 -19 -20 -59 -4 -32 -17 -109 -30 -170 l-24 -112 25 -10 c34
-13 22 -25 -34 -33 -72 -10 -137 -34 -151 -56 -21 -34 7 -68 99 -120 61 -35
29 -30 -43 6 -55 28 -59 29 -52 10 10 -26 -13 -49 -67 -67 -57 -19 -144 -25
-135 -10 3 5 31 12 63 16 73 9 99 19 112 44 9 16 6 25 -13 48 -24 29 -142 93
-171 93 -8 0 -15 7 -15 14 0 13 9 12 55 -4 31 -11 69 -28 84 -40 34 -23 53
-26 45 -6 -11 29 36 58 151 92 30 9 30 10 42 114 6 58 17 132 23 165 6 33 17
112 24 175 13 110 16 117 20 40 5 -96 7 -110 16 -110 14 0 13 227 -1 236 -6 3
-15 0 -20 -7 -7 -11 -9 -10 -9 3 0 10 9 22 20 28 11 6 20 20 20 30 0 17 -7 20
-52 21 -29 0 -87 2 -128 4 -78 4 -142 -14 -137 -39 1 -6 -6 -10 -15 -8 -12 2
-22 -9 -32 -31 -8 -19 -18 -37 -23 -40 -5 -3 -20 -42 -33 -87 -14 -44 -29 -80
-35 -80 -6 0 -16 -12 -23 -27 -8 -21 -11 -23 -10 -8 1 41 1 41 -80 -26 -7 -6
-15 -9 -18 -6 -3 2 12 17 32 33 61 49 80 107 48 152 -18 26 -59 29 -92 6 -37
-25 -24 -84 19 -84 21 0 31 24 23 56 -3 13 -2 24 4 24 15 0 20 -47 8 -72 -15
-31 -59 -35 -85 -9 -12 12 -23 21 -26 21 -3 0 -5 -19 -6 -42 -1 -24 -5 -54 -9
-68 -7 -23 -8 -23 -10 10 -7 95 4 210 26 283 5 16 3 17 -15 7 -30 -15 -60 -4
-72 28 -9 24 -11 24 -26 9 -13 -13 -14 -19 -5 -29 9 -9 12 -7 13 12 0 23 1 23
9 5 14 -32 12 -48 -5 -41 -8 3 -15 1 -15 -4 0 -5 -7 -16 -16 -24 -8 -9 -12
-16 -7 -16 5 0 9 -37 8 -82 0 -81 6 -110 75 -363 23 -81 24 -95 9 -95 -5 0 -7
5 -4 10 3 6 2 10 -3 10 -7 0 -34 78 -47 135 -2 11 -16 53 -30 93 -14 41 -25
81 -25 89 0 22 -17 6 -24 -23 -5 -19 7 -60 44 -150 55 -135 54 -134 40 -134
-5 0 -10 7 -10 15 0 12 -21 66 -60 150 -24 51 -35 84 -38 113 -1 6 -10 12 -19
12 -15 0 -16 2 -3 10 12 8 12 10 -3 16 -12 4 -16 13 -11 26 4 14 2 18 -5 14
-7 -5 -9 -1 -5 9 4 8 1 21 -5 29 -6 7 -12 28 -14 46 -3 35 -27 55 -27 23 0
-15 -2 -16 -10 -3 -6 10 -6 16 1 19 6 2 3 11 -7 22 -19 21 -13 24 15 9 16 -8
20 -3 30 47 14 73 14 103 -1 103 -9 0 -8 4 2 10 10 6 11 10 3 10 -19 0 -16 20
5 27 22 9 43 29 36 36 -3 3 5 3 18 0 14 -3 18 -1 11 4 -17 12 10 45 31 37 12
-5 15 -2 9 12 -4 12 -3 15 5 10 8 -5 12 2 12 21 0 25 -3 28 -30 27 -44 -2 -47
-3 -31 -13 12 -8 12 -12 -2 -26 -16 -15 -17 -15 -17 4 0 12 -6 21 -15 21 -18
0 -20 -16 -2 -23 7 -3 4 -6 -6 -6 -11 -1 -21 8 -24 19 -3 11 -9 20 -13 20 -5
0 -6 9 -3 20 3 12 0 20 -7 20 -6 0 -14 -9 -17 -19 -3 -11 -17 -21 -33 -25 -16
-3 -31 -14 -35 -25 -4 -12 -12 -17 -24 -14 -31 8 -94 -15 -128 -46 -26 -24
-33 -26 -34 -13 0 13 -3 12 -11 -5 -12 -25 -31 -32 -22 -8 4 8 2 15 -4 15 -5
0 -12 -10 -16 -22 -9 -34 -7 -41 7 -35 20 8 41 -9 34 -27 -10 -24 -7 -31 9
-28 8 2 14 -2 14 -8 0 -6 5 -8 11 -5 10 7 49 -21 49 -36 0 -5 -8 -5 -17 -2
-13 5 -15 2 -10 -11 4 -10 3 -26 -3 -36 -8 -15 -6 -18 15 -16 14 0 25 6 25 11
0 6 5 3 10 -5 8 -13 11 -11 16 7 4 13 10 20 15 17 5 -3 7 -9 4 -14 -3 -5 -1
-11 4 -15 6 -3 8 -12 4 -20 -3 -8 0 -15 6 -15 15 0 13 -11 -4 -33 -10 -14 -18
-16 -31 -9 -30 16 -54 3 -49 -27 4 -21 -1 -29 -26 -43 -41 -24 -73 -24 -60 0
5 9 11 31 14 49 6 39 15 55 28 48 16 -10 10 29 -11 70 -11 22 -20 32 -20 22 0
-9 -4 -17 -10 -17 -5 0 -10 -7 -10 -15 0 -8 -4 -15 -9 -15 -6 0 -11 -15 -13
-32 -2 -26 -10 -37 -38 -50 -19 -10 -40 -24 -45 -32 -14 -18 -121 -31 -130
-15 -4 6 -14 8 -23 4 -8 -3 -18 -1 -22 5 -5 8 -12 7 -23 -4 -8 -9 -21 -16 -27
-16 -6 0 -19 -7 -27 -16 -10 -10 -25 -13 -39 -10 -18 5 -24 2 -25 -11 0 -13
-2 -14 -6 -4 -4 9 -10 3 -19 -18 -10 -24 -19 -32 -36 -31 -51 4 -61 1 -48 -15
10 -13 6 -21 -25 -50 -21 -19 -42 -32 -48 -28 -5 3 -13 -1 -18 -8 -8 -12 -11
-12 -19 1 -12 19 -13 50 -1 50 5 0 11 -6 14 -12 2 -8 8 -9 13 -4 5 5 4 11 -3
13 -27 10 -11 35 32 54 25 11 45 26 45 34 0 21 20 18 21 -2 0 -15 2 -15 8 2 5
11 7 23 4 28 -2 4 5 7 16 7 11 0 23 5 26 10 5 8 11 7 21 -1 9 -7 14 -8 14 -1
0 6 10 13 23 15 16 3 14 5 -10 6 -17 0 -33 6 -35 12 -4 12 -58 1 -58 -12 0 -5
-7 -9 -15 -9 -8 0 -15 -8 -15 -17 -1 -15 -3 -15 -19 5 -22 26 -36 29 -27 6 4
-9 1 -23 -5 -30 -6 -7 -8 -18 -4 -24 3 -6 -3 -10 -14 -10 -14 0 -19 -5 -15
-15 10 -24 -25 -18 -63 11 -25 19 -33 32 -30 46 5 17 2 19 -16 14 -12 -3 -31
-6 -42 -6 -15 0 -20 -7 -21 -31 -1 -21 3 -29 12 -25 7 3 18 -2 25 -10 7 -8 17
-13 23 -11 13 5 15 -52 3 -71 -5 -8 -17 -10 -29 -6 -13 4 -18 2 -14 -4 8 -14
-24 -24 -39 -12 -6 5 -14 7 -18 4 -13 -14 -16 36 -3 62 9 15 14 30 12 31 -9 9
-56 -19 -78 -46 -14 -16 -38 -33 -52 -37 -14 -3 -26 -10 -26 -15 0 -16 -22 -9
-41 13 -23 26 -23 32 -4 48 8 7 15 21 15 32 0 14 12 24 40 35 26 11 40 22 38
31 -5 25 -24 24 -37 -2 -8 -13 -24 -27 -37 -30 -13 -4 -45 -26 -71 -51 -26
-25 -53 -45 -60 -45 -6 0 -16 -7 -21 -16 -5 -9 -22 -16 -37 -16 -18 0 -29 -7
-32 -19 -5 -17 -7 -17 -39 -2 -35 17 -48 53 -19 53 8 0 15 7 15 16 0 8 -7 22
-15 30 -9 9 -15 11 -15 4 0 -6 -4 -9 -9 -5 -5 3 -12 -3 -15 -12 -3 -10 -4 8
-2 40 2 43 8 63 26 82 16 17 21 32 18 54 -3 17 -1 31 3 31 4 0 9 12 12 28 13
67 51 151 74 161 12 6 23 17 23 26 0 8 9 15 20 15 11 0 20 5 20 10 0 6 -6 10
-14 10 -25 0 -30 40 -8 63 12 12 22 33 24 47 2 14 13 41 26 61 12 20 22 43 22
52 0 9 5 19 10 22 6 3 10 15 10 25 0 10 10 27 23 37 62 49 86 127 56 174 -9
13 -15 32 -13 42 1 9 -1 15 -6 12 -4 -3 -7 12 -6 33 2 20 3 49 4 65 2 25 5 27
50 27 26 0 42 -4 37 -8 -6 -4 -11 -29 -13 -57 -1 -37 1 -46 9 -35 7 11 8 -2 3
-43 -7 -67 5 -70 46 -9 45 67 51 91 44 163 -6 62 -9 69 -35 79 -16 7 -35 10
-44 7 -8 -4 -22 1 -31 10 -15 16 -15 18 9 39 16 13 22 24 15 26 -9 3 -7 14 4
39 l17 34 152 -2 c120 -2 150 0 140 10 -8 8 -54 12 -146 12 -73 0 -136 3 -140
7 -8 8 21 65 37 71 10 4 10 6 1 6 -15 1 -17 24 -4 49 5 9 15 32 22 51 20 53
55 90 80 84 18 -5 20 -3 14 16 -8 26 6 27 29 2 12 -13 26 -18 44 -15 27 5 72
40 72 56 0 13 -52 68 -64 68 -6 0 -27 -16 -46 -35 -19 -19 -39 -35 -44 -35 -6
0 7 17 27 38 20 21 37 41 37 46 0 4 -9 19 -20 33 -29 37 -15 42 20 8 34 -32
48 -29 85 20 l28 36 -33 34 c-37 39 -54 45 -46 17 4 -13 1 -19 -9 -19 -10 0
-15 10 -15 29 0 16 -5 38 -11 50 -16 30 -2 34 26 8 l25 -24 30 29 c31 30 38
57 20 78 -6 7 -17 21 -24 32 -14 19 -15 19 -33 2 -11 -9 -23 -17 -26 -17 -12
0 -8 28 5 32 7 3 6 12 -6 31 -24 36 -10 55 16 22 10 -14 24 -25 29 -25 5 0 25
16 44 35 40 38 39 50 -9 94 l-26 25 -35 -34 c-42 -40 -56 -35 -20 8 14 16 25
34 25 38 0 10 -36 56 -70 89 -11 12 -20 25 -20 30 0 6 4 4 9 -4 12 -19 34 -8
66 33 l27 36 -26 35 c-15 19 -32 35 -39 35 -6 0 -26 -14 -44 -32 -42 -41 -53
-30 -18 16 24 31 26 38 14 54 -28 36 -49 52 -68 52 -14 0 -19 5 -16 20 2 12
-3 21 -15 25 -17 5 -47 65 -33 65 3 0 25 -16 48 -34 l42 -35 32 32 c17 18 31
37 31 42 -1 6 -14 25 -29 43 l-29 33 -36 -31 c-29 -26 -36 -29 -36 -14 0 10 9
27 20 39 l20 22 -20 23 c-11 13 -20 26 -20 30 0 4 -11 12 -25 18 -27 12 -37
56 -10 46 8 -3 24 1 35 9 20 14 20 15 -17 19 -21 3 -44 0 -52 -6 -10 -8 -17
-6 -27 9 -7 10 -24 19 -36 21 -34 4 -34 4 -19 13 10 6 4 11 -20 19 -19 6 -43
12 -54 14 -11 2 -24 9 -30 16 -5 7 -28 15 -49 17 -22 3 -44 9 -50 14 -6 5 -14
10 -18 10 -5 1 -11 1 -15 2 -5 1 -20 0 -35 -1 -32 -2 -72 34 -64 57 4 10 2 13
-8 10 -10 -4 -13 -1 -9 9 3 7 0 14 -6 14 -6 0 -11 6 -11 13 0 9 11 12 37 9 34
-4 35 -6 18 -18 -10 -8 -14 -14 -7 -14 6 0 9 -7 6 -15 -4 -11 0 -13 18 -9 12
4 95 8 182 9 118 3 161 7 167 17 7 10 9 10 9 0 0 -10 43 -11 203 -7 111 3 240
7 287 11 47 3 341 11 654 18 423 10 570 16 576 25 4 7 10 61 14 119 3 59 8
118 10 132 2 14 7 63 10 110 12 154 53 474 76 590 5 25 12 71 15 103 4 31 11
57 17 57 7 0 8 -14 4 -37 -15 -84 -64 -541 -71 -658 -5 -83 -17 -202 -34 -335
-11 -93 -15 -90 107 -89 59 1 123 -2 143 -6 20 -4 52 -2 72 3 30 9 35 8 30 -5
-5 -13 0 -14 27 -8 23 5 35 3 41 -6 5 -8 9 385 9 899 l0 912 -4000 0 -4000 0
0 -1163z m5021 391 c-2 -315 6 -471 24 -455 7 7 10 18 8 24 -3 7 0 13 6 13 14
0 32 14 68 52 14 15 41 30 59 34 38 7 51 32 34 65 -10 19 -8 25 20 51 27 24
33 38 35 77 3 57 13 91 26 91 8 0 10 -12 14 -99 2 -26 11 -42 34 -62 28 -23
31 -30 22 -47 -19 -35 -13 -52 18 -58 16 -4 39 -15 50 -25 11 -11 23 -19 26
-19 10 0 49 -39 52 -53 1 -6 4 -21 7 -32 2 -11 8 -41 12 -68 3 -26 10 -49 13
-51 12 -8 -4 -111 -16 -109 -6 1 -9 -6 -6 -17 3 -11 0 -20 -6 -20 -6 0 -11 -7
-11 -16 0 -9 -8 -23 -17 -30 -16 -12 -16 -15 -3 -23 12 -8 9 -13 -16 -23 -20
-8 -29 -18 -26 -28 3 -8 1 -12 -3 -8 -4 4 -20 -7 -35 -24 -18 -19 -38 -30 -54
-30 -23 0 -25 -3 -14 -16 8 -10 9 -13 2 -9 -18 10 -26 -24 -11 -42 17 -20 7
-65 -15 -69 -21 -4 -58 28 -58 50 0 22 -9 23 -25 2 -10 -15 -17 -14 -78 6 -37
12 -64 27 -61 32 4 6 -2 8 -14 4 -11 -4 -23 -2 -26 3 -4 6 -12 8 -20 5 -8 -3
-12 3 -12 17 1 12 -5 24 -12 26 -9 4 -11 -3 -8 -22 4 -22 2 -26 -17 -23 -12 2
-22 10 -22 18 0 8 -6 26 -14 39 -7 13 -9 21 -3 17 5 -3 13 1 16 10 3 8 2 12
-3 9 -16 -10 -21 10 -10 46 8 25 7 42 -2 64 -17 42 -19 64 -3 58 9 -3 14 14
17 64 3 37 9 120 15 183 15 159 21 325 22 525 0 125 3 166 11 158 8 -8 11 -88
10 -265z m-4960 -1431 c-8 -11 10 -31 82 -93 50 -43 97 -84 102 -90 6 -7 15
-13 22 -15 7 -2 71 -58 144 -124 73 -66 136 -119 141 -117 4 1 8 -2 8 -7 0 -6
78 -76 173 -158 233 -200 288 -251 277 -258 -5 -3 -26 12 -46 35 -20 22 -42
40 -48 40 -6 0 -27 18 -45 40 -18 22 -39 40 -47 40 -8 0 -30 18 -50 40 -20 22
-40 40 -45 40 -5 0 -26 18 -46 41 -25 27 -43 39 -55 36 -11 -3 -18 0 -18 8 0
20 -62 76 -77 70 -7 -2 -13 1 -13 8 0 22 -67 80 -85 73 -10 -3 -14 -2 -9 5 7
12 -54 79 -72 79 -7 0 -18 -8 -23 -17 -6 -10 -11 -13 -11 -7 0 5 5 15 10 20
16 16 -52 89 -74 81 -11 -4 -16 -1 -16 9 0 23 -62 75 -83 70 -9 -2 -14 0 -11
6 7 11 -54 78 -72 78 -18 0 -45 63 -31 72 19 12 30 9 18 -5z m4725 -414 c1 -7
2 -27 3 -44 1 -28 2 -29 17 -15 8 9 24 16 35 16 10 0 19 4 19 9 0 5 6 11 14
14 10 4 12 0 8 -16 -3 -12 -10 -25 -16 -29 -6 -4 -7 -10 -4 -14 4 -3 14 1 23
10 20 19 35 21 35 4 0 -7 5 -5 11 5 10 17 12 18 30 1 15 -14 21 -14 34 -4 13
10 15 9 15 -8 0 -12 5 -24 12 -28 8 -5 9 -2 5 10 -11 28 2 38 26 21 12 -8 31
-15 44 -15 12 0 25 -4 28 -10 3 -5 15 -10 26 -10 10 0 18 -6 17 -12 -2 -7 5
-12 15 -10 10 2 17 -3 17 -13 0 -8 6 -16 13 -16 6 -1 17 -2 22 -3 15 -2 51
-38 58 -59 4 -10 11 -15 17 -12 5 3 10 -1 10 -9 0 -8 11 -23 25 -34 17 -14 21
-22 13 -25 -10 -4 -10 -8 1 -15 7 -5 11 -14 8 -19 -4 -6 7 -29 24 -51 17 -24
25 -42 18 -42 -8 0 -6 -7 6 -20 16 -18 16 -20 2 -20 -23 0 -21 -9 7 -39 17
-19 26 -42 29 -81 3 -30 9 -66 13 -79 5 -17 4 -22 -4 -17 -19 12 -14 -6 9 -30
12 -12 22 -34 23 -48 0 -16 6 -24 13 -22 7 3 10 -1 7 -9 -3 -7 10 -35 29 -62
19 -26 37 -57 41 -67 6 -16 4 -17 -10 -5 -9 7 -23 14 -31 15 -8 2 -16 4 -17 6
-1 2 -17 22 -34 44 -18 23 -32 47 -32 53 0 11 -13 15 -37 12 -7 -1 -13 3 -13
9 0 5 -13 10 -30 10 -16 0 -30 -4 -30 -10 0 -5 5 -10 10 -10 6 0 10 -4 10 -10
0 -10 -22 -9 -147 5 -50 6 -63 5 -63 -6 0 -24 -42 -35 -112 -29 -47 4 -79 1
-113 -11 -28 -9 -42 -19 -34 -22 10 -4 9 -6 -3 -6 -10 -1 -18 6 -18 15 0 13
-3 14 -14 5 -9 -8 -16 -8 -20 -2 -4 6 -13 8 -21 4 -8 -3 -15 0 -15 6 0 6 8 11
18 12 11 0 12 2 4 6 -7 3 -24 2 -38 -1 -23 -6 -24 -9 -12 -23 11 -15 11 -16
-4 -10 -10 3 -26 3 -35 0 -15 -6 -15 -7 0 -12 15 -6 15 -7 -3 -18 -15 -10 -22
-10 -35 3 -8 8 -15 11 -15 6 0 -12 -57 -21 -67 -11 -5 4 -36 9 -71 11 -43 3
-71 11 -92 26 -31 24 -45 28 -35 12 7 -12 -18 -14 -29 -2 -8 8 -13 9 -53 11
-22 1 -25 3 -13 11 14 9 7 15 -14 11 -5 -1 -6 5 -3 13 4 10 1 13 -9 9 -7 -3
-14 -1 -14 4 0 5 -26 9 -57 8 -33 0 -66 4 -78 12 -11 7 -29 13 -42 13 -12 0
-24 4 -28 9 -3 6 -17 6 -34 1 -15 -4 -35 -4 -42 1 -8 4 -32 6 -54 4 l-40 -5
49 16 c36 12 45 18 35 25 -10 6 -8 9 10 9 13 0 21 3 17 7 -4 4 -23 6 -42 5
-23 -2 -33 1 -29 8 5 9 -15 15 -37 11 -5 0 -8 6 -8 14 0 18 16 20 24 3 3 -9
10 -7 21 7 15 19 15 20 -4 23 -12 2 -21 8 -21 13 0 16 -29 10 -39 -8 -6 -11
-11 -13 -11 -5 0 7 -8 12 -17 10 -12 -2 -17 4 -18 22 0 14 5 28 10 33 15 11
-13 25 -39 19 -17 -4 -19 -2 -9 8 9 10 8 16 -4 28 -13 13 -13 16 0 23 8 5 17
19 21 32 3 13 11 24 18 24 15 1 97 42 84 43 -5 0 -3 7 4 15 11 13 8 15 -16 15
-22 0 -25 3 -14 9 8 6 18 7 24 4 5 -3 6 -1 2 5 -3 6 1 15 11 20 15 9 15 14 5
37 -11 25 -10 27 23 41 24 10 35 21 35 35 0 11 4 18 9 14 5 -3 12 -1 16 4 3 6
12 8 20 4 8 -3 15 0 15 7 0 10 3 10 14 1 12 -10 20 -9 40 4 14 10 26 23 26 31
0 22 61 34 88 17 13 -8 29 -12 35 -9 7 2 4 5 -5 5 -27 1 -21 20 8 27 17 4 29
2 35 -7 7 -11 11 -11 21 4 12 17 16 17 45 2 23 -12 30 -21 26 -33 -6 -16 -5
-16 14 1 11 9 25 17 31 17 7 0 12 10 12 22 l0 21 19 -21 c18 -22 33 -29 29
-14 -2 4 2 8 7 10 6 1 10 -3 10 -10 0 -6 6 -13 13 -15 6 -3 12 3 12 11 0 9 12
21 27 27 21 8 28 7 36 -6 8 -15 10 -15 28 1 13 11 28 15 49 11 34 -7 42 8 9
16 -34 9 -14 24 26 19 34 -4 35 -5 20 -22 -15 -16 -14 -18 4 -23 24 -6 46 16
37 38 -3 8 -15 15 -26 15 -22 0 -23 1 -14 25 8 19 48 17 50 -2z m-1280 -960
c0 -10 -7 -22 -13 -26 -7 -4 -13 -13 -13 -18 0 -6 5 -7 12 -3 8 5 9 2 5 -9 -4
-11 -1 -17 9 -17 8 0 13 -4 10 -9 -3 -5 1 -12 10 -15 22 -8 7 -26 -22 -26 -15
0 -24 -6 -24 -15 0 -10 10 -15 26 -15 22 0 24 -2 14 -15 -12 -14 -10 -60 5
-172 6 -40 5 -53 -5 -53 -10 0 -10 -3 0 -15 20 -24 94 -16 104 12 3 8 1 11 -5
8 -10 -7 -11 105 -1 173 3 26 8 31 28 30 13 -1 24 -8 24 -15 0 -7 5 -13 11
-13 6 0 9 -6 6 -12 -8 -22 13 -49 32 -43 14 4 18 1 16 -17 -1 -13 -3 -28 -4
-35 0 -7 -8 -10 -16 -7 -18 7 -18 6 -4 -35 9 -25 17 -31 38 -31 16 0 36 9 47
21 13 15 25 18 44 13 14 -4 33 -8 43 -8 28 -3 78 -46 75 -65 -1 -9 8 -30 21
-46 19 -26 20 -30 7 -33 -9 -2 -14 -7 -11 -12 3 -5 1 -11 -5 -15 -17 -10 -11
-25 10 -25 11 0 20 5 20 10 0 6 5 10 11 10 5 0 7 -4 4 -10 -12 -19 7 -10 24
11 15 18 21 20 39 10 20 -10 27 -29 23 -54 -1 -5 3 -6 9 -2 6 4 17 2 24 -5 11
-8 26 0 68 40 29 27 49 50 44 50 -5 0 0 8 10 18 18 16 50 62 86 122 40 69 58
213 33 273 -5 13 -3 16 9 11 37 -14 32 -123 -11 -238 -52 -138 -160 -268 -273
-330 -51 -28 -53 -28 -47 -7 3 11 1 19 -4 15 -5 -3 -9 -12 -9 -20 0 -14 -21
-13 -69 2 -11 4 -12 2 -1 -11 11 -13 8 -15 -21 -16 -64 -3 -143 3 -166 12 -15
5 -23 5 -23 -2 0 -6 -5 -7 -12 -3 -7 5 -8 3 -3 -6 6 -10 4 -12 -9 -7 -10 4
-21 7 -24 7 -4 0 0 5 8 11 12 8 10 9 -7 4 -14 -4 -26 0 -35 13 -7 11 -28 28
-47 40 -35 21 -88 89 -123 156 -42 82 -64 212 -50 299 6 36 6 60 0 63 -13 8
-1 52 23 86 24 33 27 34 25 11z m1925 -119 c48 -24 83 -71 72 -100 -3 -9 1
-14 12 -14 10 0 15 5 12 13 -3 8 3 13 14 13 15 0 19 -8 19 -36 0 -46 -9 -57
-42 -56 -33 2 -68 37 -68 67 0 15 -4 19 -16 15 -13 -5 -15 -2 -11 13 3 12 -1
22 -12 26 -14 6 -14 8 3 14 16 6 14 9 -15 21 -36 15 -49 27 -49 47 0 14 10 11
81 -23z m-642 -68 c-17 -67 2 -202 37 -266 15 -27 30 -47 34 -45 4 3 7 -3 6
-13 0 -9 5 -16 12 -15 11 3 14 -2 16 -36 1 -8 8 -16 16 -18 13 -4 13 -3 0 7
-13 9 -12 11 4 8 11 -2 20 -11 22 -21 2 -12 -2 -17 -11 -13 -9 3 -12 0 -8 -10
3 -7 11 -14 19 -14 8 0 14 -8 14 -19 0 -10 15 -30 33 -43 42 -32 68 -45 41
-21 -20 18 -20 21 -5 31 13 9 13 11 1 9 -8 -1 -18 -6 -21 -11 -4 -4 -10 -3
-13 3 -5 7 4 14 23 17 17 4 31 10 31 15 0 5 11 9 24 9 13 0 29 7 37 16 9 11
22 14 42 10 20 -4 27 -2 24 7 -2 6 -13 12 -25 11 -28 -1 -17 22 19 38 26 12
34 26 30 51 -1 5 8 11 19 14 11 3 20 9 20 14 0 12 37 12 44 0 4 -5 12 -8 19
-7 27 5 83 34 96 49 7 10 18 17 23 17 14 0 79 31 111 52 24 18 28 18 33 3 13
-33 -28 -206 -57 -241 -6 -7 -8 -17 -5 -22 7 -12 -13 -72 -25 -72 -4 0 -6 -7
-3 -15 4 -10 0 -15 -12 -15 -9 0 -14 -3 -11 -7 4 -3 2 -12 -5 -20 -14 -17 -2
-31 14 -15 7 7 19 12 27 12 28 0 81 45 100 85 24 52 35 115 33 190 -2 33 0 73
4 88 10 47 28 24 31 -38 1 -31 4 -59 6 -61 11 -11 48 93 52 145 5 53 3 60 -15
66 -23 7 -29 60 -7 68 9 3 9 7 1 18 -6 8 -15 24 -18 37 -10 31 17 29 38 -3 10
-15 12 -25 5 -25 -6 0 -9 -6 -6 -12 2 -7 10 -12 16 -10 7 1 10 -2 6 -8 -3 -5
-2 -10 4 -10 6 0 7 -7 4 -17 -4 -11 -3 -14 5 -9 7 4 12 2 12 -3 0 -6 -4 -11
-10 -11 -5 0 -10 -13 -10 -30 0 -17 5 -30 12 -30 9 0 9 -3 0 -12 -7 -7 -12
-24 -12 -39 0 -92 -62 -239 -134 -321 -30 -34 -119 -91 -166 -106 -33 -11 -34
-11 -15 4 l20 17 -20 -8 c-38 -13 -70 -18 -138 -19 -37 -1 -67 -4 -67 -8 0
-25 -147 32 -218 85 -96 73 -191 226 -218 352 -20 90 -18 196 3 222 24 29 26
24 12 -31z m-117 -108 c14 -11 47 -113 64 -198 3 -14 17 -46 31 -73 18 -35 26
-68 29 -124 4 -77 11 -93 47 -93 9 0 17 -4 17 -10 0 -21 36 -50 61 -50 14 0
40 -5 58 -11 38 -13 47 -8 31 20 -13 26 4 29 20 4 9 -15 10 -12 6 13 -4 31 -4
32 23 18 14 -8 33 -14 41 -14 12 0 12 -2 2 -9 -9 -6 -5 -8 15 -8 15 0 57 -6
93 -12 84 -16 172 -7 260 26 8 4 19 5 24 4 5 -1 13 4 17 11 5 8 8 6 6 -9 -1
-17 -5 -20 -18 -12 -11 5 -20 5 -24 0 -3 -5 4 -13 16 -16 12 -4 18 -12 15 -21
-3 -7 -1 -16 4 -19 6 -4 10 -12 10 -18 0 -8 -3 -8 -9 2 -7 10 -12 8 -24 -9
-12 -18 -19 -20 -35 -11 -17 9 -19 7 -16 -24 1 -19 -2 -35 -8 -35 -7 0 -6 -5
1 -14 8 -10 9 -16 1 -21 -5 -3 -10 -14 -10 -23 0 -12 -9 -18 -31 -19 -23 -2
-30 1 -25 12 3 8 -2 18 -11 23 -13 8 -13 11 7 25 14 10 19 20 14 28 -4 8 -7
26 -6 41 1 14 -2 29 -7 32 -12 8 -25 -30 -16 -44 3 -5 2 -10 -4 -10 -6 0 -8
-6 -5 -13 3 -8 -6 -18 -21 -25 -29 -13 -31 -31 -9 -78 15 -31 17 -32 37 -20
12 8 42 14 65 14 28 -1 39 -4 30 -9 -7 -5 -23 -9 -36 -9 -15 0 -22 -5 -19 -12
2 -7 10 -12 17 -10 7 2 10 -3 7 -12 -3 -8 1 -20 9 -26 18 -16 18 -26 -3 -48
-10 -9 -28 -30 -41 -46 -25 -33 -31 -31 -34 7 -1 15 -6 27 -11 27 -5 0 -7 -7
-3 -15 4 -13 2 -14 -14 -5 -17 9 -20 8 -20 -10 0 -11 -4 -20 -9 -20 -6 0 -7
-17 -4 -37 3 -21 2 -35 -2 -30 -5 4 -16 0 -25 -8 -23 -21 -64 -24 -65 -5 -2
25 -16 50 -30 50 -7 0 -19 13 -26 29 -7 16 -16 28 -19 26 -4 -2 -15 10 -25 28
-25 43 -42 54 -95 62 -43 7 -101 32 -108 48 -2 4 -7 5 -11 2 -13 -7 -41 18
-46 43 -2 12 -6 26 -9 31 -3 4 4 17 14 29 24 26 24 28 3 51 -28 28 -49 31 -95
15 -24 -9 -59 -16 -78 -16 -19 0 -43 -4 -53 -9 -22 -12 -143 -21 -179 -13 -16
3 -28 11 -28 18 0 14 -41 36 -65 36 -8 0 -15 6 -15 14 0 7 -12 16 -27 20 -16
3 -38 8 -50 12 -19 5 -23 2 -23 -15 0 -26 -26 -28 -40 -2 -25 47 7 91 67 91
21 0 44 5 51 12 9 9 12 9 13 -3 1 -15 25 75 35 131 3 19 12 42 20 51 8 8 14
23 14 32 0 9 4 17 8 17 5 0 6 14 4 32 -3 22 0 35 13 44 10 8 19 24 21 36 1 13
3 26 3 29 1 4 19 19 40 34 22 15 41 34 43 43 2 12 15 17 52 17 29 1 52 7 54
13 5 16 34 15 54 0z m-927 -408 c22 -8 56 -14 75 -16 105 -6 168 -5 195 5 26
10 28 9 12 -3 -13 -10 -14 -15 -5 -18 19 -8 90 -3 110 6 26 12 40 -30 23 -71
-7 -17 -11 -34 -7 -38 3 -3 -4 -8 -16 -12 -24 -6 -29 -19 -10 -25 8 -3 4 -10
-11 -17 -13 -7 -21 -8 -17 -3 3 6 2 13 -3 16 -5 4 -12 -2 -14 -11 -2 -10 -3
-6 -1 10 2 18 -1 27 -10 27 -17 0 -29 -42 -19 -67 7 -17 6 -17 -21 0 -15 10
-33 16 -39 13 -7 -3 -6 -5 3 -5 9 -1 21 -14 27 -30 6 -18 20 -31 34 -34 19 -3
17 -5 -8 -6 -25 -1 -33 3 -33 16 0 14 -2 14 -20 -2 -11 -10 -20 -24 -20 -31 0
-8 -6 -11 -17 -7 -12 5 -15 2 -11 -9 4 -8 -2 -22 -13 -31 -17 -15 -19 -15 -19
-1 0 9 -6 14 -12 11 -46 -19 -48 -19 -48 -3 0 22 -24 30 -49 17 -15 -9 -23 -7
-37 7 -10 9 -20 16 -23 14 -14 -8 -10 16 4 28 14 11 17 10 22 -8 6 -24 28 -29
46 -9 20 20 14 41 -15 56 -24 11 -29 11 -43 -3 -9 -9 -21 -16 -26 -16 -15 0
-10 22 9 36 10 8 12 13 5 14 -7 0 -13 4 -13 10 0 5 7 7 15 4 8 -4 15 -1 15 5
0 6 -3 11 -7 11 -5 0 -19 3 -32 7 -20 5 -22 3 -16 -16 4 -14 2 -21 -7 -21 -7
0 -19 -10 -27 -22 -13 -21 -14 -21 -27 -3 -7 10 -11 22 -8 27 3 5 0 16 -8 25
-12 15 -10 16 14 10 23 -6 27 -3 37 24 6 17 8 35 5 40 -3 5 0 9 5 9 15 0 14
43 -1 58 -7 7 -8 12 -2 12 5 0 3 4 -5 9 -8 5 -11 16 -7 26 4 12 10 14 19 7 6
-5 30 -15 52 -22z m-1939 -756 c51 -96 92 -170 119 -218 54 -94 51 -189 -9
-258 -26 -31 -92 -63 -100 -49 -3 5 4 12 17 15 24 6 77 75 77 100 0 9 6 16 14
16 20 0 28 29 20 75 -5 35 -19 64 -65 140 -30 50 -109 213 -109 226 0 17 6 10
36 -47z m3839 -399 c22 -5 26 -4 15 4 -21 15 -8 22 25 13 30 -8 42 -37 19 -46
-21 -8 -17 -25 6 -23 12 1 20 8 20 19 0 20 8 22 30 7 11 -8 12 -12 3 -16 -21
-8 -15 -25 7 -18 15 5 18 3 14 -9 -4 -11 -1 -16 10 -16 9 0 16 7 16 15 0 10 7
15 18 13 9 -2 16 3 15 10 -2 6 2 12 7 12 16 0 12 22 -7 35 -16 12 -14 12 10 8
15 -3 33 -1 40 5 8 7 19 5 36 -9 13 -11 21 -22 17 -26 -3 -4 -12 1 -19 10 -14
20 -57 13 -57 -9 0 -11 15 -15 58 -14 88 0 96 -2 111 -22 8 -12 21 -18 32 -15
11 3 22 1 25 -4 3 -5 12 -9 21 -9 11 0 14 6 9 25 -4 14 -2 25 4 25 5 0 10 -4
10 -9 0 -5 9 -13 20 -16 12 -4 19 -14 18 -23 -2 -12 3 -16 20 -14 16 2 22 -2
22 -17 0 -10 3 -26 6 -35 7 -19 25 -22 22 -3 -2 6 6 12 17 12 19 0 22 -16 10
-52 -7 -22 -49 -14 -69 12 -10 14 -25 25 -32 25 -7 0 -14 6 -17 13 -2 6 -8 9
-12 5 -8 -8 39 -58 55 -58 5 0 10 -4 10 -9 0 -5 -19 -7 -42 -5 -24 2 -35 1
-25 -2 18 -6 24 -24 7 -24 -5 0 -10 -11 -10 -25 0 -31 -18 -32 -77 -3 -33 17
-46 19 -55 10 -9 -9 -8 -12 5 -12 11 0 17 -8 17 -21 0 -12 8 -23 20 -26 18 -5
56 -50 48 -58 -7 -8 -88 37 -83 45 4 6 1 10 -4 10 -6 0 -11 -5 -11 -10 0 -7
-6 -7 -19 0 -11 5 -29 10 -40 10 -12 0 -21 4 -21 9 0 5 -9 13 -21 16 -16 5
-18 10 -9 20 7 8 9 19 5 25 -9 14 -32 13 -38 -2 -3 -9 -16 -2 -39 20 -36 34
-163 104 -211 116 -25 6 -39 26 -17 26 6 0 10 6 10 14 0 22 17 28 39 16 11 -6
22 -6 25 -1 11 17 -45 23 -64 6 -16 -14 -18 -14 -30 1 -11 12 -11 17 -1 23 9
6 7 10 -8 14 -12 3 -21 10 -21 16 0 7 9 9 24 5 14 -3 27 -1 31 6 5 8 10 9 14
2 3 -6 20 -13 36 -17z"/>
<path d="M7750 6113 c-52 -6 -126 -12 -164 -12 -38 -1 -67 -4 -64 -7 4 -3 84
-6 180 -6 146 -1 195 -6 216 -23 2 -2 -16 -21 -39 -43 l-43 -40 29 -35 c17
-19 36 -38 43 -41 15 -7 92 60 92 80 0 7 -16 26 -35 41 -19 15 -35 34 -35 41
0 7 5 10 10 7 6 -3 10 -1 10 4 0 6 5 11 11 11 5 0 7 -4 4 -10 -3 -5 -1 -10 4
-10 6 0 14 0 18 0 4 0 9 13 11 30 l3 30 -78 -2 c-43 -1 -121 -8 -173 -15z"/>
<path d="M7641 6006 l-33 -34 33 -36 c18 -20 40 -36 49 -36 9 0 33 18 55 40
l39 40 -29 30 c-39 40 -72 39 -114 -4z"/>
<path d="M7754 5918 l-42 -44 38 -38 38 -39 29 21 c15 11 37 29 47 41 19 21
19 22 -11 59 -17 20 -37 38 -44 40 -8 1 -33 -17 -55 -40z"/>
<path d="M3076 5851 c-33 -34 -32 -38 4 -73 17 -15 30 -34 30 -40 0 -7 18 6
40 27 22 21 40 45 40 52 0 7 6 11 13 8 6 -2 22 9 35 25 l23 29 -80 -1 c-73 -1
-82 -3 -105 -27z"/>
<path d="M403 5797 c-10 -17 191 -192 208 -181 7 4 9 3 6 -3 -6 -9 69 -91 76
-82 2 2 14 19 26 37 l23 33 -23 26 c-41 43 -57 47 -80 21 l-20 -23 17 28 c17
28 17 28 -16 62 -19 19 -38 35 -42 35 -5 0 -19 12 -32 27 -19 22 -31 26 -80
27 -32 1 -60 -3 -63 -7z"/>
<path d="M220 5790 c0 -3 12 -14 27 -25 15 -11 39 -32 53 -46 14 -15 52 -48
85 -74 33 -26 78 -65 101 -87 38 -36 41 -38 56 -21 31 36 30 58 -4 92 -37 36
-45 38 -65 14 -13 -16 -13 -16 -3 5 9 18 8 27 -2 40 -22 29 -51 52 -63 52 -7
0 -18 14 -25 31 l-13 30 -73 -2 c-41 -2 -74 -6 -74 -9z"/>
<path d="M799 5638 l-23 -31 50 -41 c27 -23 65 -58 86 -79 20 -22 40 -37 45
-34 4 3 16 21 27 40 l18 35 -28 31 c-35 39 -46 39 -78 -1 -14 -18 -26 -30 -26
-26 0 14 24 58 32 58 16 0 7 22 -21 51 -38 37 -54 37 -82 -3z"/>
<path d="M991 5484 c-12 -15 -21 -31 -21 -37 0 -16 124 -126 143 -127 10 0 17
-8 17 -20 0 -11 4 -20 9 -20 4 0 29 -19 55 -41 26 -23 48 -40 50 -38 1 2 12
17 24 33 12 16 22 31 22 35 -1 15 -59 71 -75 71 -9 0 -26 -10 -37 -22 -19 -22
-19 -22 1 8 l20 31 -39 38 -40 39 -23 -22 c-32 -30 -46 -28 -17 3 l24 25 -34
35 c-41 42 -52 43 -79 9z"/>
<path d="M821 5474 c-27 -34 -26 -38 6 -64 14 -11 54 -46 88 -78 34 -31 86
-77 116 -102 68 -57 229 -200 229 -204 0 -2 -15 -19 -34 -39 l-34 -36 40 -41
c23 -22 41 -39 42 -38 1 2 13 17 29 34 l27 31 -25 27 c-38 41 -30 52 12 17 30
-25 40 -28 52 -18 9 7 -3 -10 -27 -37 -47 -54 -52 -72 -22 -81 11 -3 20 -12
21 -18 0 -7 5 -3 10 8 8 17 8 16 4 -7 -4 -19 0 -30 12 -37 17 -9 16 -11 -5
-31 -16 -16 -21 -28 -16 -43 4 -12 8 -29 9 -37 3 -27 17 -50 31 -50 20 0 17
-13 -6 -28 -29 -18 -24 -32 11 -32 24 0 30 4 25 15 -3 8 -2 15 3 15 5 0 14 -7
21 -15 20 -24 54 -18 72 13 15 26 15 28 -7 55 -23 26 -65 37 -65 17 0 -5 -5
-10 -10 -10 -6 0 -5 8 2 20 10 16 9 23 -10 43 -33 35 -27 45 8 12 l30 -28 31
32 31 33 -33 36 c-19 20 -35 39 -37 42 -2 2 -6 0 -10 -5 -4 -6 -17 -16 -29
-22 -20 -11 -21 -11 -16 5 4 9 13 21 21 26 8 4 10 11 6 15 -5 3 -20 19 -34 36
-18 20 -11 17 24 -13 27 -23 57 -42 67 -42 11 0 19 -5 19 -10 0 -6 9 -20 19
-31 l19 -21 18 29 c10 15 23 31 28 35 6 4 4 14 -5 25 -31 36 -31 47 -1 19 18
-16 34 -28 36 -25 2 2 1 31 -3 64 -6 57 -17 78 -69 131 -25 26 2 14 31 -13
l29 -28 -7 70 c-4 39 -9 72 -12 75 -3 3 -22 -13 -42 -35 -42 -46 -107 -103
-78 -69 23 28 21 46 -8 74 -14 13 -23 26 -20 28 3 3 19 -9 36 -27 l31 -33 29
34 c15 18 28 38 29 44 0 5 -15 25 -34 43 -29 28 -36 31 -53 20 -11 -7 -26 -22
-34 -34 -8 -12 -32 -37 -54 -56 -31 -25 -34 -27 -16 -6 21 23 22 29 10 44 -60
75 -66 77 -104 32 l-26 -32 23 -26 c13 -14 33 -36 46 -48 23 -21 23 -22 3 -33
-16 -8 -19 -8 -15 3 3 8 -10 31 -29 52 -29 33 -36 36 -54 26 -18 -9 -20 -8
-16 7 2 10 -10 30 -32 52 -33 32 -37 33 -58 21 -20 -13 -21 -13 -8 2 11 15 9
21 -15 51 -17 20 -39 35 -51 35 -13 1 -23 7 -23 14 0 7 -16 28 -35 47 l-35 34
-26 -25 -27 -24 17 27 c17 27 17 27 -14 58 -38 37 -53 38 -79 4z"/>
<path d="M108 5395 c-3 -3 -4 -20 -2 -37 2 -18 -1 -35 -7 -38 -6 -4 3 -19 23
-38 52 -47 219 -193 273 -237 26 -22 90 -76 141 -120 50 -44 109 -91 129 -105
20 -14 54 -42 75 -62 21 -21 45 -38 54 -38 21 0 20 -16 -2 -32 -26 -18 -40
-47 -35 -69 5 -17 10 -20 30 -18 4 0 11 -8 15 -18 7 -16 8 -16 5 2 -2 11 -9
19 -16 17 -7 -1 -11 5 -9 15 2 10 13 19 26 21 24 4 28 12 12 28 -16 16 0 54
22 54 17 0 20 -5 16 -30 -5 -33 13 -56 36 -47 7 3 16 22 18 42 3 30 0 40 -20
56 -14 10 -33 19 -44 19 -11 0 -17 4 -13 9 5 9 -56 81 -70 81 -3 0 -21 16 -38
35 -17 19 -37 35 -44 35 -7 0 -29 18 -49 40 -20 22 -40 40 -45 40 -5 0 -25 18
-45 40 -20 22 -45 40 -55 40 -11 0 -19 5 -19 10 0 12 -61 69 -73 70 -5 0 -25
18 -46 40 -20 22 -40 40 -44 40 -4 0 -24 18 -44 40 -26 30 -38 37 -44 28 -9
-15 -11 -13 -33 29 -10 20 -21 30 -30 27 -8 -3 -16 3 -19 15 -5 20 -18 27 -29
16z"/>
<path d="M0 5304 c0 -55 2 -59 44 -98 24 -23 66 -59 92 -81 27 -22 89 -76 140
-120 50 -44 112 -98 138 -119 30 -26 42 -42 35 -47 -7 -4 -26 11 -48 36 -20
24 -41 44 -47 44 -5 1 -25 17 -44 36 -19 19 -38 35 -44 35 -5 0 -24 18 -43 40
-19 22 -43 40 -54 40 -10 0 -19 5 -19 10 0 15 -55 70 -69 70 -7 0 -24 14 -38
30 -13 17 -29 30 -34 30 -5 0 -9 -24 -9 -53 l0 -54 113 -97 c61 -53 122 -106
133 -117 12 -10 27 -19 33 -19 6 0 11 -9 11 -20 0 -28 -5 -26 -46 20 -20 22
-46 40 -57 40 -11 0 -18 3 -14 6 8 8 -53 74 -69 74 -7 0 -27 18 -44 40 -44 56
-60 53 -60 -12 0 -39 5 -57 22 -75 12 -13 18 -26 14 -30 -4 -5 -14 1 -23 12
-14 18 -14 15 -10 -42 3 -50 9 -66 31 -86 23 -22 35 -47 21 -47 -3 0 -17 12
-30 28 l-24 27 -1 -86 c0 -47 5 -101 12 -119 9 -26 9 -35 0 -38 -16 -5 -15
-72 1 -73 31 -1 321 3 402 7 50 2 137 4 195 5 58 1 96 4 85 6 -11 3 -24 9 -30
13 -11 9 -58 6 -74 -5 -16 -9 -13 8 3 31 13 17 12 21 -1 37 -22 23 -2 22 30
-3 34 -27 44 -25 61 9 14 27 14 29 -17 60 -18 17 -36 31 -40 31 -4 0 -23 18
-43 40 -20 22 -40 40 -45 40 -9 0 -69 59 -69 67 0 7 24 -9 98 -69 39 -33 72
-57 72 -54 0 2 17 -12 38 -33 38 -38 72 -44 72 -12 0 9 4 21 10 27 6 6 -3 22
-24 46 -19 20 -37 34 -40 31 -3 -4 -22 12 -42 35 -19 23 -40 42 -45 42 -5 0
-26 18 -46 40 -21 22 -43 40 -49 40 -6 0 -26 18 -44 40 -18 22 -39 40 -46 40
-8 0 -30 18 -50 40 -20 22 -40 40 -45 40 -5 0 -25 18 -45 39 -21 24 -41 38
-50 34 -8 -3 -14 1 -14 9 0 17 -67 84 -76 76 -3 -3 -21 10 -39 30 -19 21 -35
31 -35 25 0 -17 -20 -17 -20 0 0 7 -9 18 -20 25 -12 7 -18 17 -15 22 3 5 1 11
-5 15 -6 4 -10 -15 -10 -51z"/>
<path d="M7891 5152 l-53 -47 40 -39 40 -38 41 33 c48 40 50 62 12 106 l-27
33 -53 -48z"/>
<path d="M7694 5167 c-11 -12 -32 -31 -47 -42 l-27 -20 36 -37 c19 -21 41 -38
48 -38 14 0 86 71 86 86 0 10 -61 74 -71 74 -3 0 -14 -10 -25 -23z"/>
<path d="M7766 5054 l-49 -45 34 -35 c18 -19 40 -34 49 -34 16 0 90 69 90 83
0 9 -61 77 -69 77 -3 0 -28 -21 -55 -46z"/>
<path d="M7866 4965 l-50 -45 34 -35 c19 -19 41 -35 49 -35 9 1 34 18 55 39
l39 39 -33 41 c-18 22 -36 41 -39 41 -3 0 -28 -21 -55 -45z"/>
<path d="M7642 4956 l-43 -43 41 -37 41 -36 39 31 c21 17 41 37 44 44 6 17
-45 84 -64 84 -8 1 -34 -19 -58 -43z"/>
<path d="M7840 4775 l-45 -46 38 -34 c22 -20 44 -32 50 -28 31 18 76 55 80 67
6 16 -49 86 -67 86 -6 0 -32 -20 -56 -45z"/>
<path d="M6170 4311 c0 -18 16 -20 151 -22 348 -5 750 3 746 14 -5 15 -897 22
-897 8z"/>
<path d="M7906 4312 c-2 -1 -140 -3 -306 -3 -238 0 -301 -2 -291 -12 9 -9 102
-13 351 -14 286 -3 340 -1 340 11 0 9 -15 15 -46 18 -25 2 -47 2 -48 0z"/>
<path d="M2210 3922 c0 -11 -9 -22 -20 -25 -11 -3 -19 -11 -18 -19 2 -7 -2
-12 -9 -11 -13 3 -12 -22 2 -34 4 -4 5 -2 1 5 -4 6 -2 12 3 12 6 0 11 -4 11
-10 0 -18 53 -6 58 12 2 10 8 18 13 18 17 0 9 -19 -17 -39 -14 -11 -23 -25
-19 -31 3 -5 1 -10 -4 -10 -6 0 -11 -7 -11 -15 0 -26 50 -36 162 -32 59 2 110
1 113 -2 4 -3 24 -11 45 -17 28 -8 42 -9 51 0 9 8 10 8 5 -1 -5 -9 0 -13 16
-13 13 0 29 -5 35 -11 5 -5 22 -11 36 -13 27 -3 57 -22 57 -38 0 -5 11 -26 25
-46 14 -20 25 -30 25 -21 0 8 -7 24 -15 35 -18 24 -19 34 0 34 17 0 41 -38 36
-59 -1 -9 3 -12 13 -8 10 4 16 1 16 -8 0 -8 8 -15 18 -15 14 0 15 -2 2 -10
-12 -8 -11 -10 7 -10 16 0 21 4 17 15 -4 8 -10 15 -15 15 -4 0 -16 16 -25 35
-9 19 -23 35 -30 35 -8 0 -14 7 -14 15 0 28 32 15 72 -30 22 -25 45 -45 50
-45 5 0 -2 11 -16 24 -29 26 -34 46 -10 46 8 0 13 -4 10 -9 -4 -5 3 -7 14 -4
11 3 20 9 20 14 0 5 23 8 50 6 35 -1 49 -6 45 -14 -2 -7 2 -13 10 -13 8 0 15
5 15 10 0 6 7 10 15 10 18 0 19 -12 3 -28 -9 -9 -6 -12 15 -12 15 0 27 4 27 9
0 5 7 16 15 25 18 17 45 11 45 -10 0 -8 4 -14 8 -14 5 0 14 -10 20 -22 11 -23
11 -23 7 2 -9 44 4 49 130 56 66 4 122 8 124 10 20 18 -48 25 -295 28 -153 2
-308 9 -344 15 -36 6 -85 14 -110 17 -51 6 -59 7 -154 28 -41 9 -76 23 -88 35
-22 24 -34 26 -41 9 -3 -7 -6 -3 -6 9 -1 12 -8 26 -17 31 -9 5 -15 13 -14 18
0 5 -8 10 -20 12 -11 2 -20 -1 -20 -7 0 -6 -7 -8 -15 -5 -8 4 -21 1 -29 -5
-14 -12 -21 -1 -35 59 -8 32 -51 42 -51 12z"/>
<path d="M1954 3805 c3 -60 8 -110 10 -113 11 -10 123 41 143 66 22 26 23 26
23 5 0 -16 6 -23 18 -22 10 0 12 3 5 6 -7 2 -13 13 -13 22 0 24 -8 30 -30 24
-12 -3 -16 -11 -13 -21 5 -11 2 -14 -10 -9 -10 4 -17 0 -20 -11 -4 -16 -5 -15
-6 1 -1 18 -21 25 -21 6 0 -5 -5 -7 -10 -4 -6 4 -8 10 -5 15 3 5 1 11 -4 15
-6 3 -8 12 -4 20 3 9 -1 15 -8 15 -11 0 -11 2 1 10 12 8 8 16 -23 47 l-39 37
6 -109z"/>
<path d="M7957 3866 c-3 -7 -1 -18 4 -23 7 -7 5 -12 -5 -16 -8 -3 -18 -2 -21
3 -11 17 -62 -18 -70 -47 -7 -26 -8 -26 -15 -8 -7 17 -9 17 -9 3 -1 -10 -6
-18 -13 -18 -9 0 -9 -3 0 -12 18 -18 15 -28 -8 -28 -12 0 -20 -7 -20 -16 0
-13 -3 -14 -14 -5 -10 8 -16 9 -21 1 -3 -5 -17 -7 -30 -4 -26 6 -65 -21 -65
-45 0 -11 6 -9 20 7 25 27 45 30 31 4 -7 -14 -6 -18 7 -19 49 -2 202 -24 232
-33 19 -5 36 -10 37 -10 2 0 3 60 3 134 0 113 -2 135 -16 140 -21 8 -21 8 -27
-8z"/>
<path d="M2438 3445 c-3 -3 -23 -7 -44 -8 -44 -2 -44 -4 -22 -102 14 -67 15
-68 48 -43 29 21 65 22 113 2 16 -6 18 -2 15 27 -2 23 -8 33 -17 31 -12 -3
-12 -1 -1 13 10 12 10 19 2 27 -7 7 -12 22 -12 35 0 20 -5 23 -38 23 -21 0
-41 -2 -44 -5z"/>
<path d="M2636 3361 c-3 -5 -15 -7 -26 -4 -12 3 -20 0 -20 -6 0 -7 4 -10 8 -7
4 2 14 1 22 -5 13 -7 12 -9 -2 -9 -12 0 -18 -8 -17 -22 0 -22 1 -22 10 -3 7
15 8 11 3 -15 -7 -45 -8 -63 -5 -130 2 -71 -14 -194 -38 -293 -10 -42 -15 -79
-12 -82 4 -2 38 -1 77 3 l69 7 7 70 c4 39 16 95 27 125 28 73 26 96 -6 125
l-28 24 28 1 c21 0 27 5 27 23 0 12 3 32 6 45 5 18 2 22 -15 22 -11 0 -21 -3
-22 -7 0 -5 -2 -16 -4 -25 -2 -10 3 -18 11 -18 8 0 14 -4 14 -10 0 -16 -27
-12 -34 5 -4 12 -11 13 -31 5 -44 -17 -56 -13 -51 17 3 15 12 31 20 35 8 5 13
15 10 23 -4 8 -1 15 5 15 6 0 10 -5 9 -12 -2 -7 3 -12 10 -13 7 0 17 -7 22
-15 8 -13 10 -12 10 3 0 9 5 17 10 17 6 0 10 4 10 9 0 5 -12 8 -26 6 -22 -2
-25 1 -20 21 5 17 1 27 -14 36 -11 7 -20 21 -20 30 0 19 -15 24 -24 9z"/>
<path d="M2303 3337 c-4 -8 -16 -16 -25 -20 -10 -3 -18 -17 -19 -29 0 -13 -1
-125 -2 -250 -2 -222 -1 -228 18 -228 39 -1 105 -38 105 -59 0 -18 3 -19 30
-10 34 12 33 9 19 104 -6 39 -12 81 -14 95 -2 14 -15 79 -30 145 -15 66 -34
153 -42 193 -16 71 -24 84 -40 59z"/>
<path d="M7434 3318 c-3 -4 0 -8 6 -8 6 0 8 -5 5 -10 -4 -6 -11 -7 -17 -4 -7
5 -9 1 -5 -10 4 -9 -2 -30 -13 -48 -10 -17 -17 -35 -14 -40 3 -4 1 -8 -4 -8
-5 0 -12 -9 -15 -20 -6 -23 5 -25 35 -9 30 16 89 -4 109 -37 l16 -26 30 79
c45 114 46 120 14 128 -49 13 -142 21 -147 13z"/>
<path d="M2426 3261 c-21 -23 -13 -61 13 -61 10 0 23 12 30 27 9 20 15 23 24
14 21 -21 -13 -65 -51 -69 -30 -3 -33 -6 -28 -30 3 -15 8 -46 11 -69 7 -45 21
-56 32 -25 3 9 25 42 49 74 24 31 44 64 44 74 0 9 -11 32 -26 51 -29 38 -71
44 -98 14z"/>
<path d="M2530 3118 c-62 -68 -85 -151 -56 -206 14 -28 54 -68 59 -61 18 21
44 299 29 299 -2 0 -16 -14 -32 -32z"/>
</g>
</svg>
