<?xml version="1.0" standalone="no"?>
<!DOCTYPE svg PUBLIC "-//W3C//DTD SVG 20010904//EN"
 "http://www.w3.org/TR/2001/REC-SVG-20010904/DTD/svg10.dtd">
<svg version="1.0" xmlns="http://www.w3.org/2000/svg"
 width="854.000000pt" height="854.000000pt" viewBox="0 0 854.000000 854.000000"
 preserveAspectRatio="xMidYMid meet">
<metadata>
Created by potrace 1.16, written by Peter Selinger 2001-2019
</metadata>
<g transform="translate(0.000000,854.000000) scale(0.100000,-0.100000)"
fill="#000000" stroke="none">
<path d="M1753 8515 c7 -14 15 -25 20 -25 4 0 7 -7 7 -15 0 -10 10 -15 28 -15
36 0 49 -10 54 -40 2 -20 8 -25 31 -23 15 1 27 -3 27 -8 0 -6 12 -9 28 -6 15
2 21 2 14 0 -24 -8 6 -31 64 -49 30 -9 54 -21 54 -25 0 -5 6 -9 13 -9 27 0 67
-26 67 -42 0 -10 5 -18 10 -18 6 0 10 5 10 10 0 20 25 9 37 -16 8 -18 9 -32 3
-45 -6 -10 -10 -36 -10 -59 0 -33 -4 -42 -25 -52 -14 -6 -25 -17 -25 -25 0 -7
-4 -13 -10 -13 -5 0 -10 -8 -10 -19 0 -33 -22 -39 -122 -38 -53 1 -92 -1 -87
-4 5 -3 7 -13 3 -22 -3 -9 -10 -15 -15 -12 -4 3 -15 -19 -24 -49 -9 -30 -25
-66 -36 -79 -21 -28 -25 -52 -8 -62 6 -5 3 -13 -10 -22 -12 -8 -21 -23 -21
-33 0 -10 -4 -22 -10 -25 -18 -11 -10 -26 10 -20 23 7 25 -3 11 -52 -6 -19 -5
-35 1 -41 6 -6 6 -16 0 -28 -5 -11 -8 -30 -7 -44 1 -14 -4 -38 -12 -53 -13
-26 -13 -30 1 -40 15 -11 15 -14 -1 -37 -19 -27 -25 -100 -8 -100 13 0 35 -70
35 -112 0 -40 34 -98 61 -105 12 -3 18 -11 15 -19 -3 -8 -2 -13 2 -12 16 3 62
-22 71 -41 8 -14 7 -29 -4 -55 -13 -32 -18 -35 -44 -30 -18 4 -43 -1 -70 -16
-41 -20 -43 -20 -56 -4 -12 17 -15 16 -48 -9 -37 -28 -55 -66 -59 -127 -3 -39
-16 -48 -70 -49 -22 -1 -38 -6 -38 -13 0 -6 -7 -4 -18 5 -10 10 -26 17 -36 17
-10 0 -23 14 -32 35 -8 19 -21 35 -28 35 -8 0 -16 6 -19 13 -8 20 -37 -25 -31
-47 4 -10 0 -29 -7 -42 -10 -19 -10 -27 -1 -36 7 -7 12 -20 12 -31 0 -24 54
-103 76 -111 9 -4 32 -2 51 5 25 8 56 8 113 0 44 -6 86 -8 95 -5 8 4 18 24 21
45 4 23 15 46 26 54 19 13 19 14 -7 17 l-28 3 27 33 c17 19 37 32 52 32 30 0
58 -41 49 -72 -5 -18 -4 -20 4 -8 17 24 13 -20 -4 -50 -17 -29 -20 -80 -5 -80
6 0 10 -13 10 -29 0 -33 15 -47 47 -43 12 2 25 -3 30 -11 4 -8 27 -16 50 -19
23 -2 40 -1 38 3 -9 13 61 52 101 57 38 4 44 2 44 -14 0 -15 2 -16 9 -5 9 13
35 6 27 -7 -6 -11 131 -75 147 -69 9 3 18 26 22 59 4 29 20 92 35 141 15 48
25 87 21 87 -3 0 2 5 12 11 9 6 17 22 17 38 0 15 6 50 14 77 16 55 24 109 31
206 3 37 10 91 16 120 6 29 12 60 13 67 2 8 8 17 14 19 7 2 10 8 7 13 -4 5 7
33 23 61 25 47 40 95 59 193 3 17 14 41 24 54 11 13 19 29 19 36 0 7 10 25 22
41 17 21 23 43 24 86 1 32 4 61 8 65 10 10 7 33 -5 33 -6 0 -22 9 -37 20 -14
11 -28 17 -31 12 -10 -15 -79 -22 -90 -9 -13 17 -25 132 -15 149 5 7 9 29 10
48 1 19 9 71 18 114 9 44 15 85 12 93 -3 7 4 22 15 32 16 15 19 26 14 50 -4
21 -3 31 5 31 6 0 8 5 5 10 -4 6 1 22 10 36 9 15 14 34 10 47 -5 17 -4 19 4 7
15 -21 18 -13 24 73 l5 77 -503 0 -503 0 11 -25z m247 -786 c0 -8 4 -8 14 0 8
7 34 11 57 9 34 -2 44 -7 49 -24 3 -12 25 -37 50 -56 53 -40 60 -69 31 -124
-12 -21 -21 -44 -21 -49 0 -6 -13 -24 -30 -40 -25 -24 -37 -28 -82 -27 -122 3
-118 2 -118 27 0 12 -7 28 -15 35 -8 7 -15 20 -16 29 0 10 -2 11 -6 4 -2 -7
-14 -13 -25 -13 -21 0 -22 18 -3 63 5 12 3 17 -8 17 -8 0 -17 -6 -20 -12 -2
-7 -8 -9 -13 -5 -5 5 -2 12 6 17 8 5 24 16 35 25 20 15 20 16 -2 31 -30 21
-29 27 7 64 17 17 30 26 30 20 0 -15 36 -12 50 5 15 18 30 20 30 4z"/>
<path d="M3883 8475 c-38 -38 -73 -65 -91 -68 -35 -7 -50 -36 -28 -53 9 -6 16
-16 16 -22 0 -16 64 -62 86 -62 21 0 60 -23 85 -52 21 -23 51 -23 66 0 6 10
12 57 14 103 1 46 7 90 13 97 11 15 -9 33 -29 26 -6 -3 -18 3 -26 12 -11 13
-11 18 -1 21 6 3 12 12 12 22 0 14 10 17 55 17 30 0 60 5 67 12 9 9 -8 12 -82
11 l-95 -1 -62 -63z"/>
<path d="M5760 8520 c0 -5 -9 -10 -20 -10 -12 0 -20 -6 -18 -13 4 -15 -30 -58
-60 -74 -12 -7 -35 -13 -51 -13 -16 0 -34 -7 -41 -15 -7 -8 -17 -15 -22 -15
-5 0 -24 -16 -43 -35 -42 -41 -46 -76 -10 -95 14 -7 25 -19 25 -25 0 -7 9 -20
20 -30 11 -10 20 -26 20 -37 0 -10 5 -18 10 -18 6 0 10 -18 10 -40 0 -22 5
-40 11 -40 6 0 8 -8 4 -19 -5 -15 -1 -18 22 -13 32 5 63 29 63 48 0 11 17 50
42 94 4 8 12 24 17 35 5 11 29 35 55 53 25 18 46 38 46 44 0 6 8 17 18 24 14
10 15 16 5 32 -6 11 -8 24 -3 33 6 8 4 19 -5 29 -8 9 -16 34 -17 56 -2 21 -7
42 -13 46 -15 11 -65 10 -65 -2z"/>
<path d="M4954 8434 c-5 -28 -3 -40 9 -49 14 -10 13 -12 -4 -23 -11 -7 -19
-23 -19 -40 0 -16 -3 -32 -6 -35 -27 -27 -50 -174 -30 -194 27 -28 106 177
110 286 2 69 0 76 -31 85 -19 6 -23 2 -29 -30z"/>
<path d="M4687 8203 c-26 -7 -38 -47 -40 -128 -1 -85 12 -115 53 -115 23 0 31
5 36 24 3 13 15 27 26 29 14 4 19 11 15 21 -4 11 -1 16 10 16 9 0 13 3 10 7
-4 3 1 11 10 18 17 12 9 40 -8 29 -6 -3 -13 3 -16 15 -3 12 -9 21 -14 21 -5 0
-6 6 -3 14 3 8 1 24 -6 35 -10 20 -33 24 -73 14z"/>
<path d="M6457 7871 c-9 -16 -14 -36 -11 -45 3 -8 -4 -29 -16 -46 -12 -17 -19
-38 -16 -47 4 -8 1 -22 -5 -30 -10 -11 -9 -18 5 -31 16 -16 18 -16 31 2 8 11
21 16 30 13 10 -4 15 -1 15 12 0 10 3 21 8 25 4 4 7 11 8 14 0 4 6 20 12 35 7
16 12 46 12 68 0 36 -7 45 -34 40 -5 -1 -12 3 -16 8 -3 6 -13 -2 -23 -18z"/>
<path d="M3827 7835 c-14 -7 -34 -15 -44 -18 -12 -3 -9 -5 9 -6 14 0 33 -4 42
-7 23 -9 20 -34 -4 -34 -12 0 -31 -11 -44 -23 -16 -16 -29 -21 -39 -16 -9 6
-19 3 -27 -6 -11 -13 -14 -13 -25 2 -7 9 -24 17 -39 18 -30 1 -31 -1 -11 -21
22 -23 18 -32 -11 -26 -34 6 -72 -15 -91 -51 l-14 -29 48 3 c54 3 96 -8 88
-21 -3 -5 -15 -6 -28 -1 -12 5 -64 6 -114 4 -63 -3 -93 -1 -93 6 0 6 -7 11
-15 11 -8 0 -15 -4 -15 -9 0 -5 -15 -11 -32 -14 -81 -14 -94 -20 -113 -50 -21
-33 -44 -47 -153 -93 -36 -16 -73 -40 -87 -58 -14 -17 -33 -39 -42 -49 -14
-14 -15 -21 -5 -37 9 -16 8 -20 -6 -24 -24 -8 -92 -75 -92 -90 0 -8 -10 -20
-22 -28 -21 -14 -21 -14 -2 -43 l19 -28 -32 6 c-28 6 -33 3 -47 -28 -9 -19
-21 -37 -26 -40 -16 -10 -12 -35 5 -35 12 0 14 -7 9 -27 -4 -16 -10 -30 -13
-33 -13 -10 -71 -88 -71 -95 0 -4 11 -4 25 -1 14 4 25 2 25 -4 0 -5 -11 -10
-25 -10 -14 0 -25 -6 -25 -13 0 -7 -11 -23 -25 -35 -16 -14 -25 -31 -24 -49 1
-17 3 -21 6 -10 2 9 9 17 14 17 5 0 20 19 35 41 18 30 29 38 37 30 7 -7 6 -16
-7 -30 -10 -11 -16 -26 -13 -33 3 -8 6 -6 6 5 1 10 6 15 12 12 17 -11 -19 -43
-46 -41 -20 3 -24 -2 -29 -45 -6 -41 -13 -54 -51 -86 -41 -35 -47 -45 -57
-103 -6 -36 -10 -88 -9 -115 1 -28 -3 -100 -10 -160 -12 -110 -20 -207 -20
-235 0 -37 -11 -80 -19 -80 -6 0 -10 11 -10 24 0 14 -5 37 -11 53 -8 22 -12
24 -19 13 -7 -12 -12 -12 -22 -2 -6 6 -25 12 -41 12 -21 0 -30 6 -34 20 -3 12
-22 29 -42 40 -36 18 -122 90 -108 90 4 0 -12 17 -35 38 -24 20 -46 41 -50 46
-3 5 -15 10 -25 11 -11 0 -35 13 -54 28 -43 33 -69 36 -62 7 3 -11 0 -20 -5
-20 -19 0 -53 -44 -48 -63 4 -16 -28 -57 -44 -57 -4 0 -12 -11 -18 -25 -6 -14
-18 -25 -26 -25 -9 0 -20 -9 -27 -21 -8 -16 -17 -20 -37 -16 -16 3 -34 -1 -43
-9 -15 -13 -18 -13 -32 1 -9 8 -24 15 -34 15 -15 0 -16 -2 -3 -11 11 -7 0 -8
-40 -4 -30 3 -65 6 -77 6 -13 1 -23 5 -23 9 0 4 -16 11 -35 14 -27 5 -40 2
-57 -14 -29 -26 -68 -27 -68 0 0 18 -2 17 -26 -5 -14 -13 -35 -27 -45 -30 -18
-6 -18 -7 1 -45 13 -25 28 -40 42 -42 15 -2 22 -9 20 -20 -2 -11 2 -16 10 -13
8 3 21 -11 33 -32 11 -21 29 -39 40 -42 24 -4 45 -31 38 -49 -3 -7 4 -23 15
-35 11 -12 24 -34 27 -50 4 -15 11 -30 16 -33 5 -3 9 -29 9 -57 0 -29 4 -58 9
-66 11 -17 -5 -49 -33 -70 -18 -13 -18 -15 -1 -27 11 -8 16 -21 12 -33 -3 -14
3 -25 19 -36 20 -13 24 -23 23 -58 -3 -56 27 -189 45 -199 7 -4 17 -27 20 -51
10 -64 39 -107 74 -107 29 0 76 32 78 53 0 7 4 20 7 30 4 9 10 25 13 35 11 29
3 106 -12 123 -20 22 -7 75 24 99 21 17 24 25 18 61 -4 24 -3 38 3 35 5 -4 16
1 25 9 9 9 17 11 21 5 3 -5 17 -10 30 -10 17 0 25 -6 27 -22 2 -19 9 -23 38
-21 50 2 50 2 44 18 -4 10 0 15 15 15 25 0 29 41 6 60 -8 7 -15 20 -15 29 0
20 -29 62 -30 44 0 -9 -7 -10 -22 -4 -13 5 -47 7 -77 5 -57 -3 -98 20 -88 48
2 7 -2 21 -11 31 -8 9 -10 17 -5 17 6 0 16 -7 23 -15 9 -11 15 -12 20 -5 10
17 101 15 133 -3 18 -9 24 -17 15 -20 -7 -2 9 -2 36 1 34 3 51 1 58 -9 8 -11
9 -10 4 4 -5 15 -2 17 16 11 12 -3 30 -16 40 -28 9 -11 17 -17 18 -12 0 16 30
-17 30 -34 0 -10 6 -22 13 -28 7 -6 14 -26 15 -44 2 -18 7 -35 13 -39 6 -4 11
-34 10 -68 0 -34 4 -61 9 -61 6 0 10 -7 10 -17 0 -9 8 -34 17 -55 13 -29 23
-38 41 -38 13 0 22 5 20 11 -4 12 44 69 59 69 4 1 24 21 43 47 19 25 45 55 58
66 12 11 22 27 22 34 0 7 7 13 15 13 18 0 18 -4 5 -49 -7 -24 -6 -42 5 -66 16
-39 21 -93 10 -117 -8 -21 1 -52 13 -44 13 8 55 -143 58 -209 2 -33 7 -105 13
-160 5 -54 7 -103 4 -108 -7 -11 6 -99 17 -117 18 -29 25 4 26 118 3 225 16
577 22 587 4 6 7 17 9 25 1 8 7 16 12 18 6 2 11 10 11 17 0 7 7 15 15 19 8 3
15 15 15 26 0 25 -9 26 -26 3 -12 -17 -13 -17 -14 3 0 12 7 27 16 34 23 20 36
49 27 63 -4 6 -8 29 -9 51 -1 21 -7 42 -13 45 -16 10 -7 39 38 133 62 128 86
205 70 224 -18 22 -19 55 -3 81 9 14 10 24 4 28 -6 3 -10 -1 -10 -9 0 -9 -5
-16 -10 -16 -7 0 -7 6 -2 18 5 9 7 23 5 30 -4 9 2 11 19 7 26 -7 55 16 44 34
-9 13 44 65 81 80 18 7 61 15 95 17 71 4 88 7 258 32 19 3 67 5 105 4 44 0 62
3 50 8 -19 7 -18 9 8 19 36 14 35 14 53 -4 17 -17 44 -20 44 -5 0 6 17 1 37
-10 41 -22 63 -25 63 -10 0 6 9 10 20 10 11 0 20 -4 20 -10 0 -5 20 -10 45
-10 25 0 45 5 45 10 0 6 6 10 14 10 8 0 17 8 19 18 4 13 5 11 6 -5 1 -27 16
-30 30 -5 9 15 10 14 11 -7 0 -23 1 -23 19 -7 26 24 89 28 101 7 10 -18 19
-18 31 0 8 14 13 8 22 -36 3 -11 6 -2 7 20 2 35 3 37 10 15 5 -17 8 -19 9 -7
1 17 21 23 35 10 4 -4 17 -8 29 -8 14 0 23 -8 27 -25 6 -25 6 -25 12 -2 7 26
33 29 56 5 16 -16 17 -15 22 12 5 31 27 32 22 2 -2 -15 0 -16 11 -5 7 7 17 22
21 33 5 12 10 15 13 8 2 -7 11 -9 20 -6 13 5 14 3 4 -15 -7 -12 -16 -22 -21
-22 -6 0 -10 -4 -10 -10 0 -14 16 -12 33 4 11 11 17 12 26 3 6 -6 11 -7 11 -1
0 5 5 2 11 -6 7 -10 12 -11 15 -4 5 13 41 7 61 -8 7 -5 17 -7 22 -4 5 4 12 2
16 -4 7 -12 65 -14 65 -2 0 5 18 9 40 10 34 2 40 -1 40 -19 0 -14 4 -18 13
-12 27 17 36 11 30 -19 -6 -29 -5 -30 17 -18 18 9 24 9 30 0 4 -7 13 -9 19 -5
8 5 10 -1 5 -19 -4 -19 -2 -26 9 -26 8 0 17 -8 21 -17 3 -10 9 -24 12 -30 3
-8 -1 -13 -11 -13 -16 0 0 -26 60 -97 5 -7 15 -19 21 -26 7 -8 10 -33 7 -60
-4 -31 -2 -47 6 -47 6 0 11 -7 11 -16 0 -8 -4 -12 -10 -9 -5 3 -10 1 -10 -6 0
-26 33 -174 40 -179 7 -5 14 -18 60 -107 13 -26 35 -62 48 -79 64 -88 111
-274 138 -551 8 -89 19 -174 23 -189 8 -30 31 -45 31 -20 0 8 5 18 12 22 7 5
8 3 3 -5 -5 -9 -2 -12 11 -9 33 6 45 102 18 143 -19 28 -28 121 -15 150 4 11
14 32 21 47 l13 26 33 -32 c27 -26 34 -41 34 -72 0 -57 17 -24 25 50 4 34 14
73 21 88 28 54 10 117 -29 102 -22 -8 -65 -66 -73 -98 -4 -18 -10 -24 -16 -18
-13 13 -5 58 10 54 9 -1 10 6 6 23 -5 20 -3 24 10 19 13 -5 16 2 16 39 0 25 3
52 6 61 8 22 36 20 66 -4 49 -38 51 -57 29 -302 -21 -234 -37 -330 -72 -437
-22 -64 -22 -91 0 -191 8 -34 7 -56 -5 -92 -18 -55 -48 -78 -102 -78 -44 0
-54 -15 -67 -95 -3 -22 -12 -78 -20 -125 -7 -47 -23 -130 -36 -185 -12 -55
-23 -111 -24 -125 -2 -14 -5 -32 -8 -40 -4 -8 -18 -52 -33 -97 -15 -46 -30
-80 -35 -77 -5 3 -6 -1 -4 -9 3 -7 -5 -29 -17 -48 -13 -19 -38 -65 -57 -102
-18 -37 -38 -67 -42 -67 -5 0 -9 -6 -9 -14 0 -7 -12 -21 -26 -31 -17 -11 -23
-22 -19 -33 3 -9 3 -13 -1 -9 -11 10 -35 -29 -28 -46 4 -12 0 -14 -16 -10 -19
5 -21 3 -15 -16 4 -12 2 -21 -4 -21 -6 0 -11 6 -12 13 0 6 -4 1 -10 -11 -5
-13 -6 -28 -3 -33 3 -6 0 -16 -6 -24 -19 -22 -80 -126 -80 -136 0 -4 -9 -11
-20 -14 -11 -4 -30 -24 -41 -46 -27 -53 -75 -104 -82 -87 -3 7 -6 3 -6 -9 -1
-15 -6 -20 -19 -16 -13 3 -22 -4 -30 -22 -7 -14 -16 -24 -20 -21 -5 3 -16 -4
-25 -15 -9 -10 -26 -19 -36 -19 -13 0 -21 -8 -23 -23 -2 -17 -9 -21 -27 -19
-21 2 -22 0 -10 -15 8 -9 9 -14 3 -10 -15 9 -54 -20 -65 -50 -6 -18 -14 -23
-26 -19 -10 4 -25 -2 -39 -15 -13 -12 -28 -18 -35 -14 -7 5 -18 -1 -28 -14
-11 -14 -28 -23 -49 -23 -17 -1 -33 -7 -36 -15 -3 -8 -10 -12 -15 -9 -5 3 -21
-1 -37 -9 -15 -7 -32 -11 -37 -8 -6 3 -35 5 -66 4 -30 -1 -68 4 -84 10 -22 9
-33 9 -52 -1 -12 -7 -28 -9 -34 -6 -6 4 -19 2 -30 -4 -12 -6 -22 -6 -26 -1 -3
5 -19 9 -35 9 -35 -1 -30 -18 6 -18 14 0 27 -7 30 -15 8 -21 62 -33 187 -41
59 -4 110 -10 113 -15 2 -4 11 -6 19 -2 8 3 15 0 15 -6 0 -6 5 -11 11 -11 6 0
17 -7 25 -15 9 -8 26 -15 40 -15 13 0 24 -4 24 -9 0 -12 69 2 107 22 38 20 54
6 27 -24 -16 -18 -16 -19 4 -19 12 0 22 4 22 10 0 5 19 14 41 20 40 11 103 49
95 58 -2 2 -15 -3 -28 -11 -12 -8 -40 -18 -61 -21 -36 -7 -38 -6 -35 16 2 15
11 24 26 26 12 2 22 8 22 13 0 5 5 9 11 9 21 0 37 27 32 53 -5 25 11 39 19 18
2 -5 10 -2 18 7 13 14 12 15 -2 10 -9 -4 -19 -1 -21 7 -7 17 1 25 27 26 20 0
20 1 2 8 -19 7 -18 8 5 15 13 5 29 8 36 7 6 -1 14 13 18 30 4 18 18 42 31 54
13 12 24 26 24 31 0 5 12 23 28 39 40 45 142 173 142 180 0 3 17 32 39 63 83
124 137 216 180 307 17 39 45 97 60 130 l29 60 7 -100 c3 -55 13 -120 20 -145
23 -73 52 -199 66 -282 11 -66 10 -89 -3 -166 -18 -96 -74 -252 -96 -265 -9
-6 -10 -13 -4 -20 7 -8 4 -24 -8 -47 -27 -49 -27 -50 -41 -102 -7 -27 -17 -48
-21 -48 -4 0 -8 -6 -8 -12 0 -7 -16 -33 -36 -58 -20 -25 -55 -70 -77 -100 -22
-30 -93 -122 -156 -203 -190 -244 -195 -250 -229 -307 -54 -90 -50 -87 -168
-111 -92 -18 -129 -21 -234 -16 -69 4 -152 13 -185 21 -203 50 -489 233 -537
344 -11 26 -42 114 -69 196 -27 82 -52 154 -57 160 -31 41 -96 233 -122 361
-28 135 -21 316 17 461 17 62 16 67 -15 119 -46 75 -156 285 -174 330 -11 28
-26 64 -34 80 -7 17 -20 50 -27 75 -12 42 -16 45 -45 44 -24 -2 -32 2 -32 15
-1 14 -2 14 -14 -1 -7 -10 -16 -15 -19 -11 -4 3 -7 -1 -7 -10 0 -10 -4 -17 -9
-17 -5 0 -22 -11 -38 -24 -15 -13 -45 -26 -67 -30 -44 -8 -106 -36 -106 -48 0
-4 -5 -8 -11 -8 -6 0 -18 -8 -27 -17 -16 -16 -17 -15 -21 2 -2 14 -5 15 -11 4
-12 -19 -18 -10 -31 47 -17 75 -19 155 -5 175 13 19 9 92 -4 84 -4 -3 -10 2
-14 10 -3 8 -1 15 4 15 6 0 10 8 10 18 0 14 -2 15 -10 2 -8 -13 -11 -11 -16 7
-8 28 -21 31 -111 31 -39 0 -79 5 -89 10 -11 6 -27 7 -42 1 -14 -5 -45 -11
-71 -14 -212 -20 -273 -49 -270 -130 0 -11 -1 -29 -3 -40 -2 -13 4 -21 17 -23
11 -2 23 -9 26 -14 11 -17 -2 -46 -23 -51 -11 -3 -22 -15 -25 -27 -3 -11 -18
-27 -34 -36 -16 -8 -29 -22 -29 -32 0 -22 -51 -42 -109 -42 -34 0 -41 -3 -39
-17 2 -11 -5 -19 -17 -21 -11 -2 -32 -15 -46 -28 -15 -14 -32 -22 -41 -19 -10
4 -17 -1 -21 -14 -4 -17 -9 -18 -43 -10 -22 4 -42 9 -46 9 -5 0 -8 9 -8 20 0
11 -4 20 -9 20 -5 0 -11 9 -14 20 -3 11 -10 20 -17 20 -13 0 -100 -90 -101
-105 0 -5 -2 -23 -3 -40 -3 -36 7 -60 42 -97 23 -25 24 -30 13 -52 -14 -25 -8
-90 12 -138 9 -22 17 -26 44 -23 40 3 44 -7 34 -100 -5 -47 -10 -64 -15 -52
-12 25 -27 22 -118 -23 -45 -22 -86 -40 -90 -40 -11 0 -58 -50 -58 -61 0 -4
-9 -11 -21 -14 -11 -4 -26 -19 -32 -33 -15 -35 -57 -82 -73 -82 -6 0 -22 -18
-33 -41 -12 -22 -33 -52 -46 -67 -28 -29 -29 -58 -3 -56 16 2 33 -30 40 -71 2
-12 12 -21 26 -23 12 -2 23 -9 24 -15 0 -7 2 -17 2 -23 1 -6 14 -27 29 -47 18
-23 25 -42 20 -54 -6 -16 -4 -16 16 2 20 17 19 12 -9 -39 -39 -71 -57 -90
-100 -104 -18 -7 -34 -12 -35 -12 -2 0 -8 14 -15 31 -7 17 -16 27 -19 22 -3
-4 -21 -9 -39 -11 -49 -3 -118 -75 -143 -149 -12 -32 -27 -65 -35 -73 -7 -9
-19 -40 -25 -70 -6 -30 -18 -59 -25 -63 -8 -4 -14 -17 -14 -28 0 -11 -4 -18
-10 -14 -5 3 -16 -8 -25 -25 -8 -16 -21 -30 -28 -31 -33 -2 -51 -9 -59 -23 -5
-9 -16 -16 -25 -16 -9 0 -30 -8 -47 -19 -32 -19 -96 -26 -96 -10 0 5 5 9 12 9
6 0 1 11 -12 24 -25 28 -52 27 -128 -6 -24 -10 -52 -18 -62 -18 -11 0 -23 -8
-29 -17 -7 -13 -12 -14 -23 -6 -35 30 -38 4 -36 -288 l3 -284 20 32 c19 32 65
47 65 23 0 -6 11 -15 25 -20 14 -5 25 -15 25 -22 0 -7 11 -22 24 -32 14 -10
28 -32 32 -49 13 -59 31 -59 85 -2 34 36 47 58 43 69 -3 9 -1 22 5 30 7 8 11
18 10 22 -1 5 0 16 3 24 3 8 11 33 17 55 14 45 29 82 42 105 5 8 13 24 18 36
5 11 25 28 45 38 19 9 48 30 65 46 16 17 33 30 37 30 5 0 23 17 41 37 18 20
33 33 33 30 0 -4 14 0 32 9 30 15 34 15 63 0 27 -15 30 -21 28 -54 -2 -20 -3
-54 -3 -74 0 -21 -4 -38 -9 -38 -6 0 -10 -8 -10 -17 0 -38 -34 -183 -42 -183
-5 0 -9 -10 -9 -22 0 -13 -9 -36 -20 -53 -11 -16 -20 -40 -20 -52 0 -12 -4
-25 -10 -28 -5 -3 -10 -15 -10 -26 0 -11 -11 -30 -23 -42 -13 -12 -27 -34 -31
-49 -3 -15 -14 -35 -25 -45 -10 -10 -21 -26 -24 -36 -4 -9 -18 -22 -32 -27
-14 -5 -25 -14 -25 -19 0 -5 -11 -22 -24 -38 -42 -49 -66 -102 -66 -143 0 -28
-4 -40 -14 -40 -16 0 -28 -24 -20 -44 3 -8 -6 -26 -21 -40 -14 -14 -23 -30
-20 -36 7 -12 -32 -33 -50 -26 -7 2 -21 -4 -31 -15 -16 -18 -28 -20 -89 -16
-62 4 -70 7 -70 25 -1 11 -5 26 -11 33 -6 8 -12 38 -13 68 -2 62 -6 71 -27 71
-12 0 -14 -27 -14 -160 l0 -160 4041 0 4041 0 -4 22 c-19 85 -39 200 -53 303
-15 113 -35 203 -107 505 -64 270 -155 551 -233 725 -15 33 -41 105 -57 160
-16 55 -33 112 -38 126 -32 105 -132 191 -335 290 -59 28 -135 71 -168 94 -34
23 -80 48 -102 55 -22 7 -94 40 -160 74 -149 78 -160 83 -267 136 -86 42 -88
44 -88 78 0 73 35 134 95 165 35 18 94 72 115 107 8 13 24 33 35 44 38 39 60
81 82 160 18 66 22 100 19 195 -2 77 1 125 9 141 17 34 37 91 39 112 1 10 5
20 8 24 8 7 -11 64 -21 64 -4 0 -17 14 -30 31 -25 33 -18 53 25 69 19 8 21 14
17 57 -7 84 -25 173 -34 173 -5 0 -9 12 -9 26 0 15 -6 32 -14 38 -12 9 -13 21
-5 61 8 42 7 50 -7 58 -15 9 -15 11 5 26 20 15 21 20 10 44 -7 15 -20 27 -29
27 -22 0 -40 19 -33 37 4 11 -3 12 -38 8 -83 -12 -85 -13 -99 -56 -8 -24 -22
-44 -35 -49 -11 -4 -27 -15 -35 -25 -23 -28 -106 7 -93 41 6 16 -36 73 -54 73
-7 1 -19 22 -26 49 -12 42 -17 47 -45 50 -24 2 -33 10 -41 34 -8 21 -8 36 0
50 6 11 9 28 6 38 -2 10 4 23 14 31 11 7 19 21 19 31 0 13 8 18 25 18 14 0 28
7 31 15 4 8 11 15 18 15 21 0 61 56 62 86 1 17 4 43 8 59 6 23 9 26 18 14 7
-10 8 -6 4 17 -3 18 -2 35 2 39 7 6 8 11 11 38 0 7 19 32 41 55 48 49 90 56
121 20 28 -35 27 -163 -2 -194 -17 -18 -22 -38 -25 -91 -6 -116 -5 -125 10
-147 18 -28 21 -146 3 -146 -23 0 17 -20 41 -20 13 0 21 -4 17 -9 -3 -5 -1
-12 5 -16 5 -3 10 1 10 9 0 9 7 16 15 16 9 0 15 9 15 25 0 18 6 25 20 26 42 3
45 5 44 27 0 16 5 22 22 22 14 0 24 8 27 21 3 12 10 18 17 14 14 -9 60 33 54
49 -3 7 4 22 15 35 12 13 22 45 26 83 7 57 6 62 -19 85 -14 13 -26 28 -26 33
0 5 -12 13 -26 16 -15 4 -23 12 -20 20 3 7 1 16 -4 19 -20 12 -42 74 -49 141
-5 39 -14 81 -22 95 -7 13 -13 28 -14 34 0 5 -9 11 -20 14 -11 2 -26 12 -33
22 -7 11 -18 17 -23 13 -9 -5 -27 30 -43 83 -6 19 -2 25 21 34 30 11 72 56 73
77 0 6 8 20 18 30 9 9 28 41 41 70 14 28 28 52 33 52 4 0 8 8 8 18 0 9 21 48
46 85 43 62 56 96 54 137 0 8 -1 29 -3 45 -1 17 5 38 15 49 17 19 18 19 38 1
11 -10 20 -24 20 -30 0 -13 21 -25 44 -25 18 0 56 35 56 52 0 8 6 20 13 27 10
10 7 16 -12 32 -22 18 -23 23 -12 40 9 16 9 24 0 35 -6 8 -7 14 -2 14 13 0 15
167 3 175 -6 4 -10 14 -10 24 0 10 -11 23 -25 29 -23 11 -25 17 -25 76 0 35
-2 71 -5 79 -4 8 17 37 55 73 98 96 115 133 85 190 -8 16 -15 39 -15 52 0 12
-5 31 -12 41 -11 18 -13 18 -57 -2 -25 -11 -51 -27 -57 -35 -28 -38 -171 -18
-237 35 -51 39 -65 143 -22 159 22 9 81 139 89 197 5 29 12 47 21 47 14 0 25
21 25 51 0 10 6 19 13 19 39 0 60 106 28 144 -10 12 -11 29 -3 73 10 57 -2
128 -18 103 -5 -8 -10 -7 -19 4 -8 10 -9 16 -1 21 17 10 11 25 -10 25 -11 0
-20 5 -20 10 0 6 -11 10 -25 10 -14 0 -25 5 -25 10 0 6 -10 10 -23 10 -23 0
-87 74 -107 123 -5 12 -9 17 -9 10 -1 -19 -58 8 -72 34 -13 24 -43 31 -55 11
-16 -25 -12 -69 8 -82 18 -13 19 -18 8 -70 -6 -31 -15 -58 -20 -61 -14 -8 -39
-64 -45 -99 -3 -17 -8 -80 -11 -141 -7 -168 -9 -188 -22 -212 -7 -12 -12 -33
-12 -46 0 -48 -59 -92 -127 -96 -23 -1 -53 -53 -53 -92 0 -11 -5 -19 -11 -19
-5 0 -8 -4 -5 -8 3 -5 6 -26 8 -46 1 -21 6 -40 10 -42 4 -3 8 -23 8 -46 0 -32
-6 -46 -30 -68 -16 -15 -30 -32 -30 -38 0 -5 -7 -15 -15 -22 -8 -7 -15 -20
-15 -30 0 -29 -31 -81 -55 -92 -13 -6 -26 -19 -28 -29 -3 -11 -14 -19 -26 -19
-12 0 -21 -4 -21 -10 0 -5 -9 -10 -19 -10 -11 0 -22 -4 -26 -9 -3 -5 -31 -8
-63 -6 -36 2 -50 0 -37 -5 11 -5 14 -9 7 -9 -7 -1 -12 -9 -11 -18 3 -21 -21
-73 -33 -73 -4 0 -8 -7 -8 -15 0 -8 -11 -17 -25 -21 -14 -3 -23 -10 -20 -14 5
-8 -36 -29 -132 -67 -73 -29 -227 -20 -236 15 -4 16 -5 16 -6 0 -2 -39 -18
-14 -30 47 -21 103 2 225 48 257 10 7 20 22 22 33 8 40 109 20 109 -22 0 -12
6 -13 28 -8 15 5 41 9 57 10 43 3 111 23 148 44 24 14 31 24 29 42 -10 94 -22
182 -25 185 -6 6 -89 -25 -107 -40 -8 -8 -33 -23 -56 -34 -22 -11 -46 -28 -53
-36 -8 -9 -22 -16 -32 -16 -11 0 -19 -4 -19 -10 0 -5 -6 -10 -14 -10 -8 0 -17
-6 -19 -12 -4 -10 -8 -9 -16 2 -8 12 -11 12 -17 -3 -4 -10 -12 -16 -20 -13 -7
3 -15 2 -17 -2 -2 -4 -2 -2 -1 5 4 18 -41 116 -61 133 -14 12 -16 32 -14 139
2 144 2 149 -30 182 -12 13 -29 36 -37 52 -8 15 -19 27 -24 27 -5 0 -14 19
-20 43 -39 149 -81 222 -155 272 -31 20 -66 46 -79 58 -14 12 -51 36 -83 52
-32 17 -71 45 -86 62 -16 18 -33 31 -37 28 -5 -3 -15 0 -22 7 -20 19 -66 45
-135 78 -33 16 -68 38 -75 49 -8 12 -18 18 -21 14 -4 -3 -25 6 -47 21 -34 22
-41 24 -46 11 -9 -21 -13 -20 -72 24 -67 51 -121 70 -134 48 -7 -13 -12 -14
-33 -3 -18 10 -38 11 -72 5 -47 -9 -222 3 -244 16 -22 14 -135 14 -162 0z
m443 -50 c0 -9 10 -15 25 -15 28 0 69 -35 62 -53 -3 -7 -22 -11 -51 -10 -25 2
-46 -2 -46 -7 0 -6 -12 -10 -26 -10 -19 0 -25 -4 -20 -15 3 -9 -1 -18 -9 -21
-8 -4 -12 -10 -9 -15 9 -15 -13 -10 -26 6 -10 12 -10 15 3 15 23 0 31 19 12
26 -9 4 -24 -1 -35 -11 -13 -12 -26 -14 -42 -9 -13 4 -67 7 -121 5 -55 -1
-114 3 -135 10 -45 14 -70 35 -31 26 15 -4 33 -1 44 7 16 12 22 12 41 0 15
-10 29 -12 45 -6 13 5 33 6 44 1 35 -14 68 -11 61 6 -3 10 1 15 11 15 9 0 13
3 10 7 -4 3 1 11 10 18 12 9 24 8 54 -7 43 -20 63 -23 53 -7 -3 6 -1 21 5 32
14 26 71 35 71 12z m-1212 -5430 c11 -55 32 -131 46 -170 15 -38 26 -82 26
-97 0 -14 4 -28 8 -30 9 -4 80 -172 92 -219 5 -19 12 -45 16 -59 6 -23 4 -22
-25 9 -17 19 -31 41 -31 48 0 8 -4 12 -8 9 -4 -3 -17 12 -28 32 -10 20 -25 44
-33 52 -16 16 -81 152 -81 169 0 6 -4 11 -9 11 -5 0 -7 9 -4 20 3 11 1 20 -4
20 -5 0 -9 8 -10 18 -5 51 -28 132 -37 132 -6 0 -4 4 4 10 12 7 12 19 3 77 -9
47 -9 69 -1 74 6 4 9 25 6 47 -2 22 -1 39 3 36 3 -2 9 21 12 51 10 97 22 84
28 -30 3 -60 15 -155 27 -210z"/>
<path d="M8063 7275 c-10 -8 -28 -15 -39 -15 -22 0 -34 -24 -40 -79 -4 -30 36
-86 49 -69 7 10 10 10 14 1 2 -7 15 -13 27 -13 20 0 24 6 30 53 14 119 2 154
-41 122z"/>
<path d="M138 6873 c-42 -26 -45 -70 -8 -147 30 -64 40 -136 19 -136 -5 0 -15
-13 -20 -30 -7 -19 -18 -30 -30 -30 -10 0 -19 -7 -19 -15 0 -10 -10 -15 -30
-15 -24 0 -33 -6 -40 -26 -13 -34 -13 -294 0 -294 6 0 10 4 10 9 0 5 9 12 20
16 11 3 19 9 18 13 -1 4 2 20 7 35 7 25 9 26 24 13 11 -10 29 -13 61 -10 72 9
71 8 54 50 -19 46 -11 132 17 184 25 47 62 151 60 170 -1 8 -4 49 -7 90 -6 73
-17 105 -35 95 -4 -3 -16 6 -25 20 -19 29 -38 31 -76 8z"/>
<path d="M8028 6744 c-6 -13 -17 -24 -24 -24 -9 0 -11 -21 -9 -82 2 -46 4 -84
5 -85 2 -2 3 -7 4 -13 2 -18 47 -42 69 -36 34 8 71 65 70 106 -1 50 -22 127
-38 140 -27 22 -66 19 -77 -6z"/>
<path d="M8522 6303 c4 -16 -17 -61 -58 -125 -54 -82 -61 -101 -59 -155 0 -24
-2 -37 -7 -30 -4 7 -8 -5 -8 -28 0 -27 3 -35 9 -26 7 11 11 9 21 -8 11 -22 14
-23 88 -11 1 0 2 7 2 15 0 8 7 15 15 15 13 0 15 27 15 180 0 113 -4 180 -10
180 -5 0 -9 -3 -8 -7z"/>
<path d="M922 6028 c-7 -7 -12 -19 -12 -26 0 -16 -59 -94 -97 -128 -13 -12
-23 -26 -23 -32 0 -5 -13 -24 -30 -42 -31 -34 -39 -71 -17 -87 22 -18 70 13
112 72 66 94 95 128 95 115 0 -8 12 -2 29 14 35 33 45 83 23 109 -17 20 -62
23 -80 5z"/>
<path d="M7916 5655 c-3 -8 -17 -20 -31 -25 -14 -5 -25 -17 -25 -28 0 -10 -4
-22 -8 -27 -5 -6 -14 -35 -22 -64 -19 -78 -42 -99 -106 -93 -52 4 -52 4 -58
43 -4 22 -4 45 0 50 3 5 2 23 -1 40 l-7 30 -23 -23 c-25 -26 -39 -63 -30 -78
5 -8 11 -7 21 1 11 9 14 7 14 -11 0 -19 -4 -22 -26 -17 -22 4 -27 -1 -41 -35
-8 -21 -23 -44 -33 -51 -9 -7 -25 -43 -34 -82 -10 -38 -27 -85 -37 -104 -12
-21 -18 -43 -15 -57 4 -13 2 -26 -4 -29 -5 -3 -9 -22 -7 -40 1 -28 8 -37 29
-44 30 -11 55 8 45 34 -4 8 -1 20 6 27 7 7 25 38 40 70 33 65 52 85 95 97 25
8 34 5 49 -11 41 -46 4 -395 -47 -435 -17 -14 -60 -17 -60 -5 0 7 -15 17 -77
46 -17 9 -38 25 -46 37 -25 35 -36 28 -199 -126 -32 -30 -58 -61 -58 -69 0 -8
-5 -16 -12 -18 -8 -3 -14 -39 -16 -107 -4 -96 -3 -103 16 -108 24 -6 38 -66
24 -103 -5 -14 -9 -46 -8 -72 1 -27 -2 -48 -6 -48 -5 0 -13 -10 -18 -22 -15
-34 -33 -62 -47 -71 -7 -4 -13 -14 -13 -22 0 -7 -16 -30 -35 -51 -36 -38 -36
-38 -35 -141 0 -18 4 -34 9 -37 12 -8 1 -96 -15 -121 -16 -26 -29 -95 -17 -95
12 0 36 -67 28 -80 -3 -6 1 -13 9 -16 9 -3 16 -12 16 -19 0 -19 71 -149 86
-158 8 -4 14 -17 14 -27 0 -11 5 -20 10 -20 6 0 10 -6 10 -13 0 -27 55 -69 92
-72 27 -1 35 2 31 12 -3 7 -2 13 2 13 12 0 32 -25 40 -50 4 -14 12 -31 18 -38
8 -11 7 -16 -6 -24 -13 -7 -17 -20 -15 -49 1 -21 -3 -44 -10 -51 -7 -7 -12
-24 -12 -39 0 -15 -6 -30 -12 -33 -10 -3 -8 -9 5 -19 9 -8 17 -19 17 -25 0 -6
7 -12 16 -14 8 -2 30 -30 48 -63 46 -83 82 -99 169 -74 27 7 41 18 47 37 6 15
15 35 20 44 6 10 10 25 10 34 0 9 11 30 25 46 14 17 31 50 37 74 7 23 15 41
20 38 4 -3 8 1 9 8 0 7 3 47 5 88 2 41 8 86 13 100 5 14 12 41 15 61 4 20 17
64 31 99 14 35 28 86 31 114 4 28 11 59 16 69 5 10 13 71 18 135 5 64 15 160
24 212 8 52 17 120 20 150 34 365 46 451 71 505 15 30 37 63 51 74 13 10 24
22 24 25 0 4 10 20 22 36 17 24 22 46 25 120 3 109 -6 115 -79 43 -70 -69
-151 -88 -199 -47 -9 8 -18 12 -21 9 -14 -14 7 129 21 150 4 6 15 31 24 56 29
76 73 136 116 159 61 31 90 26 143 -23 26 -23 51 -41 57 -39 13 4 15 42 2 42
-6 0 -24 20 -42 45 -18 25 -38 45 -45 45 -6 0 -28 16 -47 36 -41 42 -86 166
-93 253 -4 61 -2 56 -30 65 -15 4 -24 2 -28 -9z"/>
<path d="M1230 5350 c-25 -4 -49 -5 -54 -2 -4 2 -12 -1 -16 -8 -5 -7 -19 -14
-32 -15 -18 -1 -23 -8 -24 -30 -2 -48 17 -115 32 -115 8 0 14 5 14 11 0 8 14
9 48 4 81 -13 132 -9 146 11 24 33 18 88 -14 122 -16 18 -35 31 -42 31 -7 -1
-33 -5 -58 -9z"/>
<path d="M915 5190 c-9 -15 4 -30 26 -30 16 0 19 -4 14 -21 -4 -13 -1 -27 10
-39 12 -13 15 -25 9 -37 -6 -15 -8 -13 -12 11 l-4 29 -14 -28 c-11 -21 -11
-31 -3 -41 9 -11 8 -14 0 -14 -8 0 -11 -11 -9 -27 2 -18 9 -28 19 -27 14 1 14
-3 3 -35 -7 -20 -13 -44 -14 -53 0 -12 -8 -18 -25 -18 -15 0 -25 -6 -25 -14 0
-8 -14 -28 -31 -45 -21 -22 -29 -37 -24 -50 4 -14 0 -23 -15 -31 -12 -6 -19
-14 -16 -17 7 -7 -18 -56 -38 -72 -19 -16 -107 -50 -172 -66 -54 -13 -114 -51
-114 -71 0 -16 -49 -34 -80 -31 -39 5 -50 15 -50 48 0 16 -4 29 -10 29 -5 0
-10 11 -10 24 0 32 -34 72 -80 96 -21 11 -40 25 -42 32 -3 8 -9 5 -17 -10 -6
-12 -17 -22 -24 -22 -7 0 -25 -8 -42 -17 -16 -9 -50 -21 -75 -28 l-45 -12 -3
-207 c-2 -200 -2 -207 17 -201 12 3 21 0 25 -11 3 -9 13 -14 21 -10 10 3 21
-9 35 -40 19 -45 19 -46 0 -83 -16 -32 -25 -39 -60 -45 -37 -6 -40 -8 -40 -39
0 -29 3 -32 28 -31 15 1 32 3 39 3 7 1 24 12 38 25 19 18 24 30 20 48 -4 16 1
33 15 51 23 28 49 34 81 17 15 -9 21 -7 25 5 7 17 46 20 74 5 30 -16 70 -59
70 -76 0 -8 4 -13 8 -10 5 3 16 -6 26 -19 27 -35 74 -41 122 -16 21 12 44 21
52 21 7 0 18 11 24 25 6 14 15 25 20 25 4 0 8 7 8 15 0 8 33 47 73 87 67 68
78 75 161 102 49 16 111 41 136 57 26 16 50 29 54 29 4 0 28 14 53 31 37 26
57 32 111 35 89 4 180 -11 215 -36 28 -22 47 -19 47 6 0 8 -8 14 -17 14 -11 0
-5 7 15 16 19 10 32 24 32 35 0 11 -3 19 -7 19 -5 0 -8 10 -8 23 0 14 6 23 15
23 62 1 90 5 90 14 0 11 -7 14 -53 24 -15 4 -25 11 -22 17 5 7 11 7 19 0 13
-11 41 -9 53 3 4 4 8 17 8 29 0 16 8 23 30 27 28 6 28 7 8 14 -29 9 -36 35
-36 126 1 74 0 75 -38 112 -24 23 -49 38 -64 38 -13 0 -36 5 -50 12 -21 9 -28
9 -34 -1 -5 -7 -21 -14 -37 -16 -16 -2 -50 -9 -76 -16 l-48 -12 6 -53 c5 -36
3 -59 -6 -68 -6 -8 -9 -20 -5 -25 15 -26 -66 -121 -103 -121 -23 1 -52 24 -52
42 0 8 -12 25 -26 39 -44 41 -47 54 -19 101 14 24 28 50 31 59 3 8 20 19 37
25 18 5 32 14 32 19 -1 6 -24 26 -52 45 -29 19 -52 40 -53 45 0 12 -36 45 -49
45 -5 0 -11 10 -14 22 -4 15 5 34 32 67 42 51 55 78 41 86 -16 10 -40 -7 -41
-29 -1 -15 -2 -17 -6 -4 -3 11 -22 20 -54 27 -61 13 -56 13 -64 1z"/>
<path d="M4747 5143 c5 -12 1 -14 -18 -8 -13 5 -28 8 -34 7 -5 -1 -37 -4 -70
-8 -33 -3 -71 -13 -85 -22 -14 -9 -35 -15 -48 -13 -13 1 -31 -4 -40 -13 -10
-8 -40 -20 -67 -27 -28 -6 -58 -15 -67 -20 -10 -5 -25 -9 -33 -9 -28 0 -105
-42 -105 -57 0 -12 -3 -13 -13 -4 -16 13 -37 -4 -37 -30 0 -10 -4 -21 -10 -24
-5 -3 -10 3 -10 14 0 12 -4 21 -8 21 -5 0 -8 -10 -8 -22 1 -14 -4 -22 -12 -20
-9 1 -12 -4 -9 -15 15 -51 17 -82 7 -88 -5 -3 -8 -10 -5 -15 3 -5 0 -18 -6
-28 -7 -11 -9 -28 -5 -38 4 -11 9 -43 11 -72 2 -33 10 -61 21 -73 20 -22 34
-25 34 -6 0 6 9 23 19 36 14 18 20 21 26 11 5 -8 4 -11 -2 -7 -7 4 -10 -3 -9
-18 1 -28 8 -30 39 -14 21 12 45 15 135 18 49 1 54 14 12 31 -17 7 -33 16 -36
21 -10 16 16 47 47 58 44 15 46 15 53 -20 3 -17 21 -46 40 -65 47 -47 99 -48
143 -1 29 30 50 72 45 90 -3 10 30 9 47 -2 7 -5 10 -14 7 -20 -4 -6 0 -11 8
-11 9 0 16 -7 16 -15 0 -8 7 -15 15 -15 8 0 15 -4 15 -9 0 -18 27 -18 68 0 23
11 42 25 42 31 0 6 17 25 37 43 36 31 37 32 23 66 -8 19 -21 39 -30 46 -23 18
-150 32 -302 33 -59 0 -78 3 -78 14 0 14 90 56 120 56 9 0 20 3 24 7 17 17 84
32 122 26 22 -3 65 0 94 6 36 8 56 8 60 1 7 -11 81 -17 98 -6 25 15 -13 101
-59 134 -20 14 -79 30 -131 35 -9 1 -15 4 -12 8 2 4 -3 10 -12 13 -8 3 -12 2
-9 -4 8 -12 7 -12 -32 -1 -27 8 -31 7 -26 -6z"/>
<path d="M3005 5068 c-16 -5 -41 -13 -55 -17 -14 -4 -24 -13 -22 -20 2 -8 -3
-11 -12 -8 -16 6 -74 -58 -63 -69 3 -4 23 -8 44 -9 21 -1 38 -4 38 -5 0 -3 46
-10 87 -14 21 -2 44 -9 52 -15 10 -8 15 -9 18 -1 2 8 11 8 31 1 16 -6 37 -11
48 -11 10 0 41 -9 67 -21 130 -58 137 -73 39 -83 -154 -17 -280 -52 -291 -82
-6 -16 29 -20 39 -4 3 6 15 10 26 10 10 0 19 5 19 12 0 6 2 9 6 6 3 -3 26 1
51 8 25 8 56 14 67 13 23 0 21 -1 -64 -36 -19 -8 -47 -21 -62 -29 -14 -7 -33
-14 -41 -14 -8 0 -20 -7 -27 -15 -11 -13 -8 -20 16 -41 23 -22 81 -54 98 -54
2 0 -3 14 -11 32 -15 30 -15 32 7 50 12 10 28 18 36 18 8 0 14 4 14 9 0 5 9
11 20 14 15 4 21 -1 25 -19 3 -13 7 -36 10 -50 19 -87 146 -102 195 -22 11 18
20 43 20 56 0 25 17 28 46 7 12 -8 24 -11 28 -8 3 3 6 -3 6 -15 0 -12 1 -25 3
-29 1 -4 -10 -14 -25 -21 -16 -7 -28 -17 -28 -21 0 -8 191 -4 198 4 2 2 -4 17
-12 34 -20 38 -20 40 4 34 12 -3 20 0 20 6 0 7 4 10 9 7 5 -3 14 1 20 8 9 11
9 16 0 21 -8 6 -8 9 0 15 8 4 5 14 -9 32 -26 33 -25 36 5 30 30 -5 44 21 27
49 -7 11 -8 20 -2 24 16 10 11 34 -11 56 -16 16 -18 23 -9 29 9 6 9 9 0 15 -6
4 -14 4 -17 1 -4 -3 -17 1 -30 10 -13 8 -32 14 -41 13 -21 -3 -45 6 -94 31
-20 11 -51 20 -68 20 -17 0 -38 7 -46 15 -9 8 -32 15 -53 15 -20 0 -42 5 -47
10 -28 28 -224 29 -271 2 -27 -15 -31 -5 -5 14 20 15 18 15 -23 2z"/>
<path d="M428 4962 c-28 -12 -58 -59 -58 -92 0 -28 2 -31 15 -20 10 9 15 9 15
1 0 -17 75 -13 109 7 38 21 38 28 3 69 -29 34 -57 45 -84 35z"/>
<path d="M2083 4638 c6 -23 4 -25 -13 -21 -14 4 -20 0 -20 -11 0 -10 -9 -16
-22 -16 -17 0 -29 -12 -45 -47 -15 -31 -20 -50 -13 -57 6 -6 10 -32 10 -58 0
-26 4 -48 9 -48 12 0 31 -56 31 -90 0 -15 11 -43 24 -62 23 -35 23 -35 4 -61
-11 -15 -27 -27 -35 -27 -14 0 -13 -3 3 -21 35 -39 54 -43 85 -20 36 27 45 26
61 -1 13 -24 15 -30 17 -64 1 -15 12 -24 38 -32 44 -14 63 -5 88 41 13 25 23
33 36 30 23 -6 36 22 20 41 -12 15 5 27 44 32 52 6 112 29 127 48 9 11 20 18
24 14 10 -11 34 18 34 42 0 12 5 18 10 15 6 -3 10 0 10 7 0 19 -45 160 -59
187 -12 22 -26 21 -26 -2 0 -6 -10 -14 -22 -17 -34 -8 -122 -83 -123 -103 0
-11 -9 -21 -20 -24 -11 -3 -20 -13 -20 -22 0 -10 -8 -26 -18 -37 -10 -10 -21
-27 -25 -37 -4 -9 -15 -20 -24 -23 -10 -3 -27 -10 -38 -15 -27 -13 -79 6 -72
25 3 8 2 16 -4 18 -5 2 -11 46 -13 98 -2 57 -8 96 -15 98 -7 2 -11 30 -11 70
0 37 -5 74 -10 82 -6 10 -4 22 6 37 8 13 10 23 5 23 -5 0 -17 8 -27 17 -17 17
-17 16 -11 -9z"/>
<path d="M1486 4167 c-26 -93 -26 -95 -10 -130 14 -29 25 -37 61 -47 25 -6 53
-8 63 -5 24 8 57 58 42 63 -7 2 -12 10 -12 18 0 8 -10 22 -21 32 -12 9 -27 30
-34 47 -11 24 -20 30 -50 32 -21 1 -37 -3 -39 -10z"/>
<path d="M2598 4016 c-10 -7 -18 -16 -18 -20 0 -3 -8 -14 -19 -25 -10 -10 -21
-40 -25 -67 -3 -27 -15 -62 -26 -79 -28 -43 -25 -55 13 -55 42 0 69 19 109 78
17 26 40 53 50 60 25 18 23 34 -12 67 -16 16 -30 35 -30 42 0 17 -20 16 -42
-1z"/>
<path d="M4022 3745 c-12 -14 -22 -28 -22 -31 0 -8 -63 -64 -71 -64 -3 0 -18
-11 -33 -25 -23 -21 -24 -25 -9 -33 15 -9 14 -11 -5 -23 -17 -11 -22 -23 -21
-54 0 -35 2 -37 11 -18 6 12 19 23 29 26 21 6 26 -8 7 -17 -7 -3 2 -5 20 -3
17 2 32 0 32 -5 0 -11 40 0 55 16 6 6 14 19 18 28 6 18 37 15 37 -3 0 -5 7 -9
16 -9 8 0 12 5 9 10 -3 6 20 36 52 68 33 31 72 79 88 106 l29 49 -25 -8 c-13
-4 -51 -10 -85 -12 -46 -4 -63 -1 -73 11 -19 22 -34 20 -59 -9z"/>
<path d="M4498 3370 c-10 -9 -18 -22 -18 -28 0 -6 -6 -9 -12 -7 -17 6 -30 -4
-47 -37 -17 -33 -69 -47 -142 -38 -30 4 -72 6 -94 4 -22 -1 -46 -3 -52 -3 -19
-1 -16 -21 3 -21 27 0 9 -23 -21 -27 -16 -2 -37 -9 -47 -14 -20 -11 -137 -9
-144 3 -11 17 -34 7 -40 -17 -5 -19 -13 -25 -34 -25 -15 0 -33 7 -40 15 -8 10
-29 15 -59 14 l-46 -1 30 -13 c17 -7 33 -11 37 -9 4 3 5 -2 2 -11 -11 -28 -94
-1 -94 31 0 7 -16 16 -35 20 -19 3 -38 10 -41 15 -3 5 -16 9 -29 9 -15 0 -26
7 -30 21 -5 14 -12 18 -23 13 -21 -8 -73 -9 -107 0 -17 4 -24 3 -20 -4 3 -6
-3 -10 -14 -10 -12 0 -21 -6 -21 -14 0 -14 34 -30 58 -26 8 0 20 -4 28 -11 11
-9 15 -8 20 4 5 13 11 14 37 4 32 -11 129 -75 135 -90 2 -4 17 -14 34 -23 21
-11 33 -12 42 -4 17 13 46 3 40 -14 -7 -18 22 -40 42 -32 29 11 144 -5 144
-20 0 -8 5 -14 10 -14 6 0 10 10 10 23 0 21 5 23 60 23 37 1 69 8 84 18 14 9
31 16 37 16 21 0 99 41 99 52 0 5 9 6 20 3 13 -4 20 -2 20 7 1 9 5 7 14 -5 13
-17 46 -14 46 4 0 5 6 9 14 9 7 0 19 7 26 15 18 22 25 18 25 -14 0 -30 -56
-121 -75 -121 -5 0 -10 -9 -10 -20 0 -11 -4 -20 -9 -20 -5 0 -22 -18 -38 -39
-31 -43 -84 -77 -107 -68 -9 4 -19 0 -23 -7 -9 -16 -65 -34 -143 -46 -59 -9
-76 -13 -101 -24 -8 -4 -27 -2 -41 3 -20 8 -28 7 -32 -4 -3 -10 -18 -13 -50
-10 -25 3 -48 0 -51 -5 -6 -11 25 -59 38 -60 4 0 21 -14 36 -30 15 -17 30 -27
34 -23 12 11 37 12 37 1 0 -15 184 -3 233 15 39 14 91 57 69 57 -20 0 -13 17
9 23 14 4 20 11 16 21 -3 8 -2 18 3 21 12 7 120 152 120 161 0 4 25 35 55 69
30 35 55 68 55 74 0 6 6 11 14 11 8 0 16 6 18 12 3 7 22 14 44 14 21 1 41 3
44 4 7 3 23 7 38 8 9 1 11 9 7 22 -4 14 -2 20 8 20 19 0 29 51 14 69 -9 11 -9
15 1 18 14 5 16 33 2 33 -5 0 -10 -4 -10 -10 0 -19 -21 -10 -30 14 -11 30 -26
40 -36 25 -5 -9 -10 -8 -18 3 -10 13 -13 13 -28 -2z"/>
<path d="M425 3283 c-9 -82 -14 -93 -41 -103 -29 -12 -30 -33 -3 -71 17 -24
27 -29 62 -29 40 0 69 10 68 24 -1 12 33 76 41 76 4 0 8 7 8 15 0 9 7 26 15
39 15 23 14 25 -25 56 -32 26 -46 30 -70 25 -23 -5 -30 -3 -30 9 0 9 -4 16 -9
16 -5 0 -13 -26 -16 -57z"/>
<path d="M160 3208 c-19 -5 -47 -13 -62 -18 -16 -5 -30 -4 -34 1 -3 5 -18 9
-35 9 l-29 0 0 -469 0 -469 54 12 c75 18 122 49 136 92 8 23 8 39 2 47 -6 7
-12 50 -15 97 -7 127 -18 243 -23 252 -2 3 2 26 11 50 8 24 18 68 21 98 4 30
15 66 25 79 10 13 16 27 13 32 -3 5 2 9 12 9 14 0 15 8 9 68 -4 37 -11 69 -16
70 -5 2 -9 15 -9 28 0 26 -6 27 -60 12z"/>
<path d="M658 2468 c-21 -39 -36 -88 -26 -88 5 0 4 -9 -2 -20 -12 -22 -8 -33
22 -66 11 -12 19 -28 18 -35 -4 -27 0 -40 10 -34 6 4 10 16 8 28 -2 16 2 22
16 20 12 -1 22 9 29 28 6 16 19 32 29 35 22 7 23 32 3 53 -8 9 -20 34 -27 56
-10 32 -18 41 -40 43 -19 2 -30 -3 -40 -20z"/>
</g>
</svg>
